<svg xmlns="http://www.w3.org/2000/svg" width="710.238" height="376.079" viewBox="0 0 187.917 99.504"><path d="M92.848 99.49c-.005-.008-.027-.014-.048-.014-.029 0-.133-.07-.391-.26l-.352-.259-.389-.072c-.348-.064-.468-.079-1.175-.143l-.787-.073-.06-.05a10.777 10.777 0 0 1-.164-.148l-.104-.095-.689-.14a21.688 21.688 0 0 1-.718-.154 7.065 7.065 0 0 1-.33-.222l-.301-.208-.627-.145c-.345-.08-.632-.15-.639-.157a3.211 3.211 0 0 1-.09-.299c-.074-.278-.085-.304-.313-.795a6.633 6.633 0 0 0-.55-1.013l-.313-.505-.161-.519-.162-.519v-.854l-.243-.222a7.522 7.522 0 0 0-.623-.501l-.38-.28-.472-.725-.472-.725-.395-.291-.395-.29-.386-.787c-.213-.432-.6-1.246-.862-1.808l-.474-1.021-.534-.497-.533-.496-.65-.45-.65-.452-.15-.282a24.41 24.41 0 0 0-.155-.284l-1.334-.075-1.332-.073-.269-.185a6.255 6.255 0 0 0-.288-.193c-.013-.005-.063.054-.146.17l-.136.191a7.7 7.7 0 0 1-.639.088l-.63.072-.39.719-.39.72-.076.36-.077.361-.4.442c-.224.249-.41.443-.426.446-.034.005-.967-.135-1.007-.151a9.807 9.807 0 0 1-.41-.294l-.382-.282-.315-.073a6.288 6.288 0 0 1-.322-.08 3.741 3.741 0 0 1-.08-.211 3.815 3.815 0 0 0-.08-.212 42.671 42.671 0 0 0-1.075-.146c-.008 0-.157-.163-.33-.363l-.313-.363-.558-.295-.557-.296-.314-.796c-.22-.56-.315-.813-.315-.853 0-.031.031-.17.07-.31l.069-.254-.142-.26a29.363 29.363 0 0 1-.462-.923l-.32-.662-.386-.287a5.185 5.185 0 0 0-.785-.506l-.398-.22-.39-.434-.391-.433-.397-.293-.397-.293-.236-.362-.235-.362-.552-.29-.553-.291-.156-.503-.155-.503-.237-.004c-.159-.002-.24-.009-.247-.02-.006-.009-.057-.018-.12-.02-.12-.004-6.128-.407-6.269-.42l-.085-.008-.077.933-.077.934-.08.004c-.108.006-2.54-.22-7.021-.651l-3.706-.357-6.633-3.094a6180.69 6180.69 0 0 1-6.689-3.123c-.05-.025-.057-.035-.057-.077 0-.065.125-.292.275-.5l.117-.163-.108-.01c-.06-.007-2.029-.104-4.377-.216a913.032 913.032 0 0 1-4.3-.212c-.032-.006-.033-.01-.033-.229v-.222l-.154-.14c-.14-.127-.155-.145-.155-.19 0-.039.012-.06.064-.114l.065-.065-.065-.179a1.195 1.195 0 0 1-.065-.226c0-.032.027-.097.078-.19l.077-.143v-.495l-.078-.288-.078-.288-.233-.36-.234-.358-1.15-1.06a114.83 114.83 0 0 0-1.154-1.057 4.743 4.743 0 0 0-.139.123c-.18.163-.172.164-.386-.035-.205-.19-.211-.208-.097-.309l.071-.063-.07-.255c-.066-.244-.074-.264-.217-.528l-.15-.274-.476-.007-.477-.007-.472-.22a6.555 6.555 0 0 1-.71-.367l-.239-.147-.078-.292-.079-.291-.308-.284-.307-.284-.221-.068c-.21-.065-.229-.069-.383-.069h-.162l-.168-.077-.169-.078h-.317l-.15-.07c-.225-.105-.542-.197-1.25-.36-.35-.081-.64-.152-.646-.158a.64.64 0 0 1-.015-.151l-.004-.14-.296-.137a4.82 4.82 0 0 1-.314-.153c-.039-.035-.014-.087.145-.309l.162-.225v-.287l.066-.122.065-.122-.065-.121a.487.487 0 0 1-.066-.167c0-.03.028-.1.077-.19l.078-.145v-.494l-.074-.065a.475.475 0 0 0-.215-.107 17.086 17.086 0 0 1-.24-.075l-.098-.032-.004-.269-.004-.269.046-.038c.026-.021.089-.078.14-.127l.094-.088-.132-.182-.132-.183-.226-.068a4.19 4.19 0 0 1-.24-.078c-.01-.006-.17-.687-.17-.725 0-.002-.096-.063-.214-.135a4.79 4.79 0 0 1-.24-.151c-.021-.019-.024-.049-.024-.234v-.213l-.155-.148-.157-.148-.07-.324-.077-.36c-.004-.023-.067-.09-.169-.183l-.161-.146v-.149l-.001-.148-.225-.204a2.068 2.068 0 0 1-.387-.429l-.162-.224v-1.256l.08-.081c.1-.101.13-.104.294-.026l.118.055.027-.045c.014-.024.078-.14.141-.257l.115-.213v-.366l-.15-.207-.148-.206h-.47l-.238-.147-.239-.146-.237-.364-.237-.365v-.542l.07-.193.069-.194-.07-.261a1.634 1.634 0 0 0-.155-.418.93.93 0 0 1-.083-.187c0-.017.038-.1.084-.184l.085-.153v-.44l.151-.071a1.16 1.16 0 0 1 .204-.08c.048-.006.06 0 .144.074l.093.081v.729l.306.282.306.282h.175l-.02-.06-.141-.454-.122-.394-.158-.219c-.154-.213-.16-.225-.238-.441a1.965 1.965 0 0 1-.08-.256.84.84 0 0 1 .08-.185c.076-.14.088-.155.17-.207a.571.571 0 0 0 .088-.062c0-.004-.055-.086-.123-.184a72.544 72.544 0 0 1-.133-.192c-.006-.01-.028-.008-.063.002-.054.016-.055.017-.122.205l-.068.189.071.2c.04.109.072.216.072.237 0 .031-.03.069-.165.197-.138.131-.174.158-.21.158-.039 0-.117-.066-.62-.53l-.62-.571-.045-.042-.214.065c-.118.036-.23.064-.252.062-.032-.004-.038-.012-.041-.056-.004-.045.022-.091.223-.401.125-.193.238-.362.25-.376.025-.028.076-.032.12-.008.029.015.028.013-.006-.032-.02-.026-.126-.172-.235-.324l-.2-.276-.003-.216-.004-.216-.228-.14-.228-.14-.16-.368-.161-.369-.313-.432-.314-.433-.076-.279a2.502 2.502 0 0 1-.077-.345c0-.044.021-.123.064-.24.035-.095.065-.182.066-.194a1.86 1.86 0 0 0-.072-.222l-.072-.2v-.769l.162-.3.161-.3.073-.337.073-.337-.072-.269c-.04-.148-.143-.463-.229-.701l-.156-.433-.088-.084a5.757 5.757 0 0 1-.394-.51l-.305-.424v-.217c0-.21-.002-.222-.045-.336-.06-.16-.084-.339-.06-.449.012-.056.649-.888.792-1.033.08-.081.116-.105.266-.175.155-.072.203-.104.16-.104-.008 0-.014-.023-.014-.05 0-.042.026-.088.155-.266l.155-.215v-.577l.083-.154c.057-.106.132-.29.24-.588l.156-.434v-.602L2 27.271l-.162-.147c-.137-.124-.161-.153-.161-.188 0-.031.041-.1.16-.262a3.93 3.93 0 0 0 .224-.34l.064-.12-.224-.273-.224-.273v-1.08l.082-.302.083-.302.143-.197c.078-.109.142-.203.142-.21 0-.006-.029-.091-.064-.188a3.975 3.975 0 0 0-.225-.474 2.48 2.48 0 0 1-.161-.332c0-.019.007-.044.017-.056.014-.016.744-.691.77-.71.003-.003.077-.235.164-.516l.158-.512.163-.004.163-.004.077-.07.077-.07h.198c.11 0 .2-.003.2-.007 0-.021-.06-.12-.072-.12a.841.841 0 0 0-.122.05.488.488 0 0 1-.161.05c-.053 0-.054-.002-.054-.054 0-.041.05-.146.237-.49l.236-.436.08-.04c.068-.032.08-.045.08-.075 0-.02.177-.526.393-1.124.277-.767.414-1.166.466-1.36.05-.186.177-.56.392-1.154.298-.826.331-.91.555-1.391l.238-.513v-.725l.079-.22.078-.22.133-.06c.073-.034.132-.063.132-.065 0-.003-.025-.051-.056-.108-.085-.156-.083-.163.088-.324l.145-.136-.062-.174a2.107 2.107 0 0 1-.068-.216c-.009-.057.133-.576.23-.845l.076-.211v-.297c0-.319.002-.33.072-.33.03 0 .08.038.22.167l.18.167.007-.163.007-.164.044-.005c.036-.003.09.023.268.133.123.075.227.139.231.14.005.003.13-.023.28-.058a4.38 4.38 0 0 1 .302-.063c.052 0 .002-.02-.244-.097l-.232-.071h-.791L6.82 9.89c-.275-.169-.267-.163-.267-.207 0-.019.074-.205.164-.414l.165-.38.056.004.056.004.05.187a.994.994 0 0 0 .059.187c.015 0 .1-.265.176-.55a1.61 1.61 0 0 1 .122-.35.477.477 0 0 0 .05-.108 9.423 9.423 0 0 0-.286-.137l-.281-.131-.004-.056a1.889 1.889 0 0 1 .074-.343l.078-.292c0-.003.025-.006.056-.006.046 0 .06.007.077.039l.02.039.001-.039c0-.031.008-.039.047-.046l.255-.047.209-.039-.153-.033a1.673 1.673 0 0 1-.175-.045.387.387 0 0 1-.074-.107c-.082-.157-.069-.15-.207-.086a.427.427 0 0 1-.162.051c-.039-.004-.042-.009-.046-.064a6.333 6.333 0 0 1 .067-.524l.073-.465-.143-.263a6.926 6.926 0 0 1-.156-.297c-.01-.024.01-.198.065-.606l.078-.572-.231-.424c-.188-.347-.245-.466-.31-.648a1.821 1.821 0 0 1-.08-.26c0-.065.161-.783.233-1.038.06-.213.069-.26.076-.423l.008-.183h.063c.06 0 .1.024.606.358.454.3.568.382.698.502.121.113.207.176.394.29l.24.148.472.144c.604.184.96.266 1.555.357l.478.074.231.158c.134.092.228.149.224.135-.049-.174-.069-.423-.06-.766.01-.427.051-.661.179-1.005A2.452 2.452 0 0 1 13.419.056c.11-.026.172-.029.587-.029.416 0 .477.003.588.029.37.085.68.232.986.467l.143.11.97.161A11673.639 11673.639 0 0 1 27.18 2.55c1.763.295 3.224.543 3.247.55.09.03 3.501.489 5.53.745 2.187.276 3.756.45 5.207.578.357.032 2.005.18 3.664.332 5.27.48 7.46.668 10.053.865 3.37.257 7.91.552 12.054.783 2.625.146 2.684.149 3.882.17 2.03.034 4.808.073 7.792.108 1.995.023 7.244.023 8.376 0 3.638-.074 5.446-.119 9.303-.23l1.089-.032V4.973h.06c.054 0 .068.008.13.07l.07.071h.24l.24.001.16.074.162.074.08.296c.069.249.107.355.238.657l.156.36v.577l.243.148c.247.15.46.258.501.254.013 0 .107-.027.208-.059.102-.031.212-.057.244-.057.04 0 .099.02.195.067l.137.067.57.007.571.007.156.215.155.214h.528l.473-.218.474-.218H104.408l.15.07c.122.057.207.084.428.135.41.094.38.084.38.137a.424.424 0 0 1-.05.14l-.05.095.202.001h.202l.162.081.162.08.004.216.004.216.106.048a.898.898 0 0 0 .12.049c.006 0 .058-.043.115-.095l.138-.128c.045-.039.467-.172.547-.172.054 0 .07.011.287.213.218.202.237.216.39.289l.16.076h.163l.164.002.31.144.31.144.004.13c.002.071.009.13.014.13.006 0 .124-.027.264-.059l.253-.058.394-.219c.276-.153.488-.283.71-.436.37-.256.337-.249.584-.132l.151.071v.424h.364l.156-.07c.156-.07.157-.071.305-.071.11 0 .28-.02.654-.078.45-.07.525-.078.686-.074l.181.004.08.147.08.147.205.063.205.063.142-.066.142-.066.285.004.284.004v.109l-.717.44c-.66.406-.744.454-1.043.59a4.87 4.87 0 0 1-.783.288l-.458.14-.31.213-.308.214-.158.218-.157.217-.868.8-.868.8-.226.14a3.32 3.32 0 0 0-.233.15c-.004.007.007.09.024.185.027.15.032.223.032.544 0 .203.003.37.006.37l.387-.1.382-.101.141-.13c.425-.393.501-.459.534-.459.018 0 .093.028.166.062l.134.062.144-.132a3.81 3.81 0 0 1 .15-.132l.232-.07c.126-.04.25-.071.276-.071.073 0 .371.14.38.177.005.017-.028.166-.072.332-.086.324-.159.49-.3.687l-.077.11c-.006.009.07-.021.17-.068a.843.843 0 0 0 .25-.154c.094-.092.125-.092.324.001.124.058.207.084.447.14l.294.067.468-.123c.257-.068.495-.13.528-.14.05-.014.128-.079.454-.379l.393-.362.37-.068c.204-.037.523-.102.708-.144l.336-.077.247-.229c.413-.383.36-.345.62-.424l.229-.07.147-.205c.136-.188.175-.231.476-.512l.328-.306h.313l.228-.352c.125-.192.235-.356.245-.363.01-.007.157-.078.33-.157l.311-.143h1.185l.085.158c.066.122.085.17.082.208l-.004.05-.338.007a1.942 1.942 0 0 0-.312.017c.02.008.024.023.02.064-.003.05-.024.073-.317.343-.288.266-.325.306-.467.502-.1.138-.209.314-.31.501l-.157.289.004.31.003.31.174-.213a3.77 3.77 0 0 1 .416-.437c.223-.205.245-.222.29-.218.044.004.053.013.122.138.04.074.083.133.093.131l.462-.068.444-.067.328.152.327.152.32.368.318.368.074.204.074.204.27.004.27.004.23-.141c.177-.11.24-.142.28-.142.038 0 .1.031.27.136l.222.137.284-.066c.156-.036.303-.066.327-.066.023 0 .087.022.142.048.164.079.133.09.372-.131.128-.119.406-.346.69-.565l.478-.366h.391c.382 0 .409-.002 1.024-.073l.633-.073.392-.217.392-.217.423-.078c.233-.043.433-.075.444-.07.019.007.022.058.022.355v.347l-.058.214a8.876 8.876 0 0 1-.065.23c-.006.015.08.018.398.018h.405l.154-.07c.217-.1.23-.098.384.042.068.062.127.113.132.112.005 0 .104-.117.22-.26.245-.304.224-.294.427-.202l.13.058.14-.128.14-.13h.425v.056c0 .031-.03.14-.07.248l-.071.193.07.264c.04.145.071.287.071.314 0 .045-.011.061-.095.136l-.095.086h.33l.382.352c.21.194.386.353.391.353.022 0 .375-.113.384-.123a2.49 2.49 0 0 0 .085-.22l.074-.207h.425l.243.15c.218.133.243.153.243.187 0 .03-.095.315-.157.47l-.015.038h-2.517l-.075.136a.783.783 0 0 1-.098.15c-.04.026-.089-.002-.242-.144a1.441 1.441 0 0 0-.176-.147c-.099-.03-.505-.117-.513-.11a1.658 1.658 0 0 0-.07.172l-.06.162-.008.246-.007.247-.056.004c-.05.003-.083-.013-.29-.14a5.416 5.416 0 0 0-.544-.287c-.3-.14-.323-.147-.594-.21a4.106 4.106 0 0 0-.316-.065c-.02 0-.192.03-.383.065-.32.059-.362.07-.5.132l-.15.069-.078.142a3.16 3.16 0 0 1-.086.15 9.08 9.08 0 0 1-.421.083 11.79 11.79 0 0 0-1.214.278l-.25.075-.156.289-.157.289-.234.214-.234.215-.08.222-.08.222-.05.004c-.047.004-.063-.006-.22-.152-.133-.124-.17-.166-.17-.194 0-.02.073-.172.163-.337.148-.273.162-.305.158-.363l-.004-.063-.253.117-.254.117-.075.21c-.041.116-.08.215-.085.22-.025.026-.478.153-.53.15l-.056-.005-.05-.186a1.338 1.338 0 0 0-.056-.187.544.544 0 0 0-.047.112c-.031.087-.073.158-.196.327-.152.209-.168.238-.472.87-.296.614-.33.675-.531.986l-.225.349a.925.925 0 0 0 .061.209c.039.106.07.21.07.231 0 .066-.29.317-.552.478-.118.072-.222.139-.231.148-.009.01-.05.14-.09.291-.061.227-.1.334-.221.613l-.148.339.046.087.046.087.05-.044c.028-.024.153-.137.277-.252l.226-.208.159-.366.16-.366.29-.108.393-.144.1-.038.151-.416c.101-.28.179-.47.237-.58l.087-.163.317-.292c.309-.284.318-.291.372-.287.054.004.055.005.137.159.045.085.082.17.082.19 0 .022-.058.116-.161.257l-.161.222-.316.729c-.21.483-.369.875-.471 1.16l-.155.429-.073.474-.073.474.071.128.072.129-.001.2v.201l-.233.141c-.153.093-.234.15-.239.17-.014.064-.133.856-.133.885 0 .019.063.12.148.238.11.154.148.216.148.248 0 .024-.072.208-.16.414a6.406 6.406 0 0 0-.298.815l-.138.446.085.1c.36.43.579 1.017.604 1.63.007.165.015.222.035.263.025.05.027.106.027 1.071v1.019l.232.283.232.283.16.074.16.074.153.495c.084.273.157.505.163.517.006.011.11.146.234.298l.223.278h.426l.427.001.475-.311c.261-.172.648-.43.858-.575l.383-.262.24-.592c.207-.508.262-.662.394-1.092l.154-.5.073-.615.073-.614-.31-1.002-.31-1.002-.313-.504a16.794 16.794 0 0 0-.473-.726c-.119-.165-.16-.232-.16-.264 0-.023.035-.169.077-.324l.078-.283v-.514l-.155-.214c-.122-.169-.155-.225-.155-.26 0-.026.035-.145.079-.265.063-.176.123-.3.31-.644l.23-.425v-.833l-.077-.284a2.421 2.421 0 0 1-.074-.32c.003-.03.045-.062.236-.18l.233-.143.004-.29c.003-.207.008-.291.02-.3.01-.008.085-.044.166-.081a.752.752 0 0 0 .228-.144l.08-.076h.307l.312-.574.311-.574h.108l.007.683.008.684.066.23c.036.127.068.233.07.236a.601.601 0 0 0 .109-.048l.104-.052.145-.535c.08-.295.145-.55.145-.567 0-.017-.031-.177-.07-.356a3.134 3.134 0 0 1-.067-.37c.004-.046.007-.05.441-.45.03-.027.14-.075.346-.151l.343-.128.041-.016-.043-.045a4.304 4.304 0 0 1-.192-.253l-.15-.207v-.532l.16-.223.16-.222.245-.076a2.54 2.54 0 0 1 .28-.075c.02 0 .248.032.508.072l.472.073.166.075.166.076h.786l.15.208.15.208.242.007.242.007.232.145.231.145.276.066.275.066.437.007.437.007.162.298c.171.314.331.707.322.79l-.005.04-.151.004-.152.004v.335l.233.215c.128.118.232.217.232.22l.078.505.077.497v.97l-.16.224-.161.223-.146.067-.146.067-.007.287-.007.287-.05.07-.161.226-.112.156-.092.03-.235.072-.143.044-.031.087c-.018.048-.035.096-.04.106-.003.01.034-.006.084-.036a2.427 2.427 0 0 1 1.37-.34l.307.004.122-.113c.11-.1.165-.137.522-.334.229-.126.416-.22.437-.221.068 0 .826.144.842.16.009.009.121.242.25.519.156.339.334.69.545 1.078l.313.575.14.514c.076.283.148.546.16.585.017.062.038.087.175.211.142.128.155.145.155.19 0 .028-.032.203-.073.39l-.072.339.072.337c.04.185.073.358.073.385 0 .035-.044.131-.163.35l-.164.3-.05-.004c-.049-.004-.051-.007-.195-.272l-.15-.277a.561.561 0 0 0-.149.035l-.145.045.114.103c.103.094.113.108.113.156 0 .051-.01.063-.218.254-.12.11-.219.206-.219.212 0 .006.03.091.065.19a.84.84 0 0 1 .06.223c-.004.042-.029.062-.315.26a5.9 5.9 0 0 0-.313.226c-.002.006-.038.233-.08.505l-.077.495-.31.574-.312.573v.195h.44l.321.148c.204.093.4.195.535.28l.215.132.286-.132c.198-.091.302-.132.338-.132.029 0 .16.033.29.073l.238.073V32c0 .044-.006.057-.031.068-.018.007-.024.013-.014.013s.181.061.381.135c.2.074.371.134.38.134.008 0 .29-.158.625-.35l.61-.352.508-.065c.279-.036.525-.069.546-.073.028-.006.188-.165.585-.583l.546-.576.937-.432c1.307-.602 1.431-.672 2.786-1.563l1.051-.692.396-.51.395-.51.39-.285.39-.286.237-.365.237-.364.205-.126a1.99 1.99 0 0 0 .208-.138 5.316 5.316 0 0 0-.205-.4l-.21-.387-.158-.146-.159-.146-.161-.373c-.111-.256-.16-.387-.158-.415.004-.042.024-.051.955-.482l.951-.44h.408l.407-.002.377-.07.378-.07H155.575l.215.132.215.132.37-.205.37-.204.552-.073.551-.073.231-.143c.128-.078.408-.272.623-.43l.391-.288.158-.22.159-.22h.469l.042-.117.066-.187.025-.07-.228-.49c-.177-.377-.227-.499-.224-.535l.005-.046.157-.004.157-.004.056-.15.055-.152-.058-.007-.057-.007-.004-.188c-.003-.141-.008-.186-.021-.181-.01.003-.13.058-.265.12a1.918 1.918 0 0 1-.284.115c-.025 0-.084-.044-.206-.156-.244-.223-.254-.191.15-.47l.321-.222.16-.22c.153-.21.178-.237.518-.55l.358-.33-.05-.052c-.091-.093-.096-.084.319-.618.203-.26.523-.687.71-.946l.343-.47.55-.365.551-.363h.152c.15 0 .188-.009 2.328-.5 1.197-.276 2.186-.507 2.198-.514.012-.007 1.29-.337 2.839-.733 1.549-.397 2.818-.722 2.82-.724.001-.002.038-.133.08-.292.071-.26.079-.304.079-.43v-.142l.164-.15c.135-.124.172-.15.208-.15.024 0 .123.025.22.056.097.03.186.056.198.056.014 0 .048-.048.088-.123.036-.068.137-.222.224-.342.21-.288.193-.286.434-.066l.176.161.004-.29c.002-.184.01-.296.02-.308.025-.03.075-.021.203.038.067.03.125.054.13.05a.557.557 0 0 0 .052-.085l.042-.08-.138-.13c-.126-.117-.137-.133-.137-.18 0-.081.145-.468.2-.538l.234-.287.186-.228v-.429l.127-.235c.07-.13.127-.24.127-.244a.488.488 0 0 0-.124-.012l-.123-.004-.004-.34-.003-.34.044-.038c.024-.02.042-.039.039-.04a4.88 4.88 0 0 0-.118-.056c-.146-.068-.146-.07-.043-.356.076-.213.078-.222.078-.367v-.15l.155-.212c.11-.151.153-.22.148-.242a38.786 38.786 0 0 1-.079-.502l-.072-.472.714-1.683c.393-.926.717-1.686.72-1.688.002-.003.198-.04.435-.084.376-.07.434-.077.45-.059.012.011.054.144.094.295s.074.277.077.28l.204.065.2.062.609-.281.608-.281.147-.205c.08-.113.155-.211.164-.22.029-.022.367-.096.446-.096a.93.93 0 0 0 .154-.017c.065-.013.089-.013.11 0 .015.01.04.017.057.017.018 0 .108.073.233.187l.203.186.398.148.398.148.79 2.11.788 2.11.077.429.077.428.142.065.141.065h.786l.174.08.174.08v.05a1.3 1.3 0 0 1-.07.245l-.07.193.072.198c.04.11.105.26.147.335l.075.137.285.13.286.132.146-.066a.524.524 0 0 1 .184-.06c.02.003.181.106.358.228l.32.222v.535l.032-.01c.14-.044.34-.104.352-.104.034 0 .056.044.047.095a2.525 2.525 0 0 1-.124.602l-.391.29-.388.286-.327.153-.327.152h-.304l-.232.43-.233.43-.24.147c-.175.108-.254.148-.287.148a.526.526 0 0 1-.15-.048l-.105-.049v.045c0 .025-.072.242-.16.482l-.158.437-.05.004c-.046.004-.062-.006-.169-.105l-.16-.148c-.03-.027-.098-.056-.225-.095a1.589 1.589 0 0 0-.188-.052 6.011 6.011 0 0 0-.078.271l-.073.266-.29.003-.291.004-.17-.236a3.957 3.957 0 0 1-.254-.39c-.018-.011-.24.303-.324.458l-.072.133.078.5.078.499-.072.268-.086.313c-.01.03-.07.095-.178.194-.131.12-.172.149-.206.149-.028 0-.107-.04-.237-.12-.128-.078-.198-.114-.202-.102a90.21 90.21 0 0 0-.277.895c-.014.044-.018.047-.073.043l-.057-.005-.17-.262-.17-.262-.007.262-.007.262-.053.005c-.043.003-.067-.006-.127-.05-.084-.06-.075-.046.078.122.08.089.109.13.109.16 0 .036-.097.235-.158.323-.047.068-.09.054-.226-.074a1.009 1.009 0 0 0-.132-.112.416.416 0 0 0-.068.106c-.057.109-.087.132-.148.112-.027-.008-.029-.019-.029-.22v-.21h-.207l-.287.333c-.158.184-.286.34-.284.347.002.008.064.124.138.259.104.192.133.256.133.3v.056l-.159.05-.218.066c-.033.01-.06.022-.06.029 0 .006.029.116.064.245.084.31.084.31-.022.405a2.674 2.674 0 0 1-.3.208l-.218.134a3.79 3.79 0 0 0 .068.267c.051.187.07.278.064.31-.007.038-.003.05.023.07.018.011.085.074.15.138.362.356.6.833.709 1.418.036.196.051.733.026.938a2.79 2.79 0 0 1-.303.993c-.058.108-.06.113-.03.113.021 0 .137.098.355.297.302.279.323.301.327.351.003.04-.002.059-.022.073-.015.01-.072.061-.127.113l-.1.094.157.096c.087.053.162.098.169.101.006.003.04-.021.074-.053.071-.065.136-.077.162-.03.008.015.042.105.076.2l.072.199c.009.022.424.288.443.283a17.466 17.466 0 0 0 1.14-.393 1.525 1.525 0 0 0-.057-.173l-.061-.17-.23-.212-.231-.212h-.314l-.088-.079c-.076-.068-.088-.085-.088-.127 0-.05.001-.05.163-.126a.7.7 0 0 1 .217-.077c.037 0 .145.043.368.146l.315.145.16.294.16.294.083.305c.046.169.084.317.084.33 0 .014-.04.097-.088.186-.087.16-.087.16-.14.16-.061 0-.065-.009-.071-.15l-.004-.086-.12.058a5.491 5.491 0 0 0-.338.193 1.364 1.364 0 0 1-.445.202l-.227.07-.16.145c-.122.112-.213.18-.4.294-.245.15-.317.177-.337.125a4.415 4.415 0 0 1-.009-.366v-.344h-.195l-.075.142c-.068.128-.09.154-.23.283a.895.895 0 0 0-.24.292.915.915 0 0 1-.163.224c-.076.07-.082.074-.158.074s-.09.006-.32.147c-.248.153-.311.176-.352.127a2.484 2.484 0 0 0-.126-.119l-.108-.098-.133.185c-.124.173-.138.2-.212.405l-.079.22-.086.003-.086.004-.39.289c-.45.332-.447.33-.55.23l-.06-.06-.286.133c-.158.073-.461.23-.676.348-.322.177-.399.214-.446.214-.046 0-.059-.005-.067-.03-.009-.029-.009-.029-.025.003-.013.026-.061.046-.256.106-.132.04-.413.137-.626.216l-.386.142h-.626l-.151.279a4.595 4.595 0 0 1-.167.293 1.898 1.898 0 0 1-.242.083c-.198.06-.24.078-.346.15a1.26 1.26 0 0 0-.149.114c-.024.027-.539.767-.574.825-.008.013.01.018.071.017h.082l.155-.14.155-.141h.472l.11-.102.158-.147c.047-.043.078-.052.676-.19l.627-.143.234-.142.233-.143.154-.214.154-.215.317-.222c.28-.195.324-.222.374-.222.053 0 .056.002.06.046.004.035-.016.085-.079.204-.046.087-.116.25-.156.363l-.072.204-.172.165-.173.166h.23l.154-.285.155-.284.238-.074c.226-.07.245-.074.398-.075h.16l.317-.22c.267-.185.323-.218.36-.215.042.004.045.009.049.061.003.052-.01.074-.155.274l-.159.217-.87.656-.87.657-.553.29-.553.29-.39.071-.39.072-.47.288a6.364 6.364 0 0 1-.789.437c-.205.094-.403.199-.551.29l-.231.143h-.571l-.152-.142-.152-.141-.116.004c-.114.004-.116.005-.153.053l-.037.05.043-.028.07-.045a.174.174 0 0 1 .08-.02h.054v.406l-.218.2-.218.2.044.08c.024.044.049.085.055.092a.942.942 0 0 0 .22-.052c.24-.073.825-.21.869-.204l.03.005.003.996.004.996-.072.199-.072.199.072.334c.04.183.072.355.072.381 0 .034-.044.129-.155.333l-.155.284v.294l-.078.077-.077.076v.284c0 .215-.005.288-.018.3-.01.008-.154.077-.32.153l-.3.14-.158.506-.158.506-.239.367c-.207.317-.244.367-.278.37-.08.01-.079.022-.079-.598v-.568h-.514l-.24.148c-.164.102-.253.148-.282.148-.035 0-.093-.047-.357-.291l-.315-.292-.132-.03-.132-.032.053.06c.028.034.126.143.217.244l.166.182.304.562c.167.31.312.569.32.577.01.009.185.046.39.083a3.4 3.4 0 0 1 .39.083c.024.023.484 1.59.484 1.646 0 .04-.036.091-.236.336l-.235.289-.158.725c-.122.562-.21.921-.391 1.593l-.234.866-.156.148-.155.148v.577l.001.577-.074.069c-.217.203-.275.25-.31.25-.042 0-.068-.03-.254-.29l-.122-.171v-1.533l.208-.705c.115-.387.208-.706.206-.709a3.137 3.137 0 0 0-.233.102c-.159.074-.246.107-.283.107h-.054v-.719h-.222c-.155 0-.228-.005-.24-.017-.037-.037-.015-.088.124-.28.078-.108.143-.201.145-.207a4.139 4.139 0 0 0-.204-.394l-.028-.046-.205.254c-.184.226-.21.253-.248.253-.03 0-.18-.084-.526-.297l-.484-.297v-.684l.226-.103c.124-.057.22-.108.215-.113a1.81 1.81 0 0 0-.208-.055 7.09 7.09 0 0 1-.687-.2c-.027-.014-.032-.056-.012-.094a3.09 3.09 0 0 1 .295-.22l.283-.195-.057-.079-.109-.152a.28.28 0 0 0-.064-.074c-.007 0-.1.053-.208.12-.166.102-.203.12-.246.116l-.051-.004-.083-.226a1.75 1.75 0 0 1-.083-.269c0-.041.012-.051.226-.181.162-.1.225-.146.225-.165 0-.014-.032-.205-.071-.423-.045-.247-.067-.407-.06-.422.006-.014.117-.122.246-.24.178-.164.283-.275.433-.46.11-.135.199-.25.199-.256 0-.01-.287-.19-.319-.2a2.08 2.08 0 0 0-.228.258 4.024 4.024 0 0 1-.45.481l-.238.219-.145.269c-.08.148-.155.281-.168.296-.016.018-.087.04-.231.073-.114.025-.208.05-.208.056 0 .005.094.052.208.104.114.052.215.102.223.11.01.01.052.15.096.31l.079.293v.731l.077.28.077.28.237.365c.184.283.326.528.628 1.086.399.738.429.804.368.828a4.23 4.23 0 0 1-.358.008h-.336l-.32-.148-.32-.148h-.629l-.356-.163a28.47 28.47 0 0 1-.38-.176c-.027-.015-.032-.026.127.34l.07.161.474.004.474.004.475.146c.38.117 1.23.414 1.253.437.003.003.043.11.089.239l.083.233v.45c0 .248-.004.46-.008.473-.006.014-.027.022-.06.022-.03 0-.304-.084-.619-.189a21.354 21.354 0 0 0-.567-.185c0 .003.136.094.301.203l.302.198.477.147.477.146v.688l-.053.004c-.046.004-.078-.01-.214-.094-.106-.066-.158-.09-.154-.075.051.215.104.488.104.541v.067h-.054c-.038 0-.148-.044-.39-.156-.345-.16-.47-.216-.457-.206l.215.198c.115.106.215.193.223.193.008 0 .254.031.548.07.293.039.537.07.541.07.005 0 .007.157.005.35l-.004.348-.363.004-.363.003-.377-.277a328.1 328.1 0 0 0-.39-.287 8.92 8.92 0 0 0-.62.042c-.334.029-.59.057-.571.062l.802.172c.422.09.773.167.782.172.008.005.194.147.413.316.22.17.402.307.406.307.003 0 .006-.04.006-.09 0-.05.006-.095.013-.1.022-.013 1.538-.15 1.615-.145l.07.004.078.797c.044.438.084.805.09.815.006.01.255.339.553.731.5.66.541.718.537.764-.007.086-.05.077-.41-.09-.315-.146-.327-.15-.752-.262a8.16 8.16 0 0 0-.442-.11c-.005.002.071.13.171.284.171.263.197.316.171.356-.005.01-.184.081-.397.16l-.388.144-.584.069c-.32.038-.586.072-.589.075a2.35 2.35 0 0 0 .22.304l.523-.07.515-.069.535-.142c.527-.14.616-.157.635-.126.005.008.05.162.098.341.05.18.09.31.09.288.001-.037.102-.171.4-.529.15-.18.123-.193.508.251.297.342.32.37.32.422 0 .037-.045.156-.148.392-.08.187-.153.351-.161.367-.009.015-.26.318-.56.673-.533.633-.546.647-.6.65-.038.004-.191-.037-.521-.138-.395-.121-.508-.162-.736-.268a1.9 1.9 0 0 0-.278-.114 2.537 2.537 0 0 0-.076.196c-.037.103-.07.187-.073.187-.005 0-.613.08-.65.086l.7.112c.391.06.72.113.73.117.043.017.016.108-.136.46a5.037 5.037 0 0 1-.173.375c-.01.009-.24.103-.51.21-.272.106-.498.198-.504.203-.011.01.19.3.213.308.007.002.165-.053.353-.123.37-.137 1.282-.424 1.35-.424.037 0 .057.022.206.227.129.178.164.237.164.273 0 .04-.05.1-.4.488l-.4.442-.552.145-.55.145-.705.433-.704.433-.469.432-.469.432-.313.723-.314.724-.077.43c-.042.236-.077.434-.077.44 0 .005-.25.01-.556.01h-.557l-.472.218-.472.218-.469.36-.468.359-.256.553c-.14.305-.317.696-.392.87l-.137.318-.133.12a.634.634 0 0 0-.126.134c.003.008.063.095.135.194.117.162.13.185.124.232-.004.039-.067.146-.242.415l-.237.363h-.625l-.03.116-.075.283-.046.166-.276.256c-.152.14-.297.273-.32.296-.034.03-.098.057-.255.105a7.234 7.234 0 0 0-.213.067c-.001.001.025.08.06.175.101.274.133.227-.335.485l-.398.22-.225.278c-.124.152-.232.284-.241.293a1.785 1.785 0 0 1-.243.085l-.227.068v.286c0 .165-.006.289-.014.294-.03.018-.617.148-.67.148-.053 0-.07-.013-.293-.218-.13-.12-.24-.219-.243-.219-.004 0-.001.012.007.026l.219.453c.21.437.238.52.182.541a.975.975 0 0 1-.16.009c-.098 0-.14.005-.146.018l-.154.355a15.7 15.7 0 0 0-.299.761c-.084.233-.158.43-.165.439a2.678 2.678 0 0 1-.214.14l-.202.123.132.182c.191.263.197.24-.122.46-.14.097-.25.18-.246.184.005.004.082.03.173.058l.165.05.003.056c.003.053-.007.067-.278.378a8.97 8.97 0 0 0-.282.331c0 .005.092.065.204.134.273.167.275.136-.02.498a3.128 3.128 0 0 0-.226.296c0 .01.031.165.07.343.039.179.07.339.07.356 0 .022-.043.071-.146.165a.892.892 0 0 0-.148.154c-.001.012.028.16.065.33l.066.307.237.437.236.437.31.788.311.788.473.947c.365.73.496.978.57 1.081l.096.135.103.032c.241.077.502.217.73.39.56.428.888 1.052.98 1.868.008.077.014.086.177.278.118.14.29.377.57.792.347.511.402.599.398.637-.004.041-.01.046-.055.05-.05.004-.18-.06-.506-.248l-.063-.036.028.041.154.238.128.198.076.43.077.43.473.509.473.51.541.856c.298.472.6.939.67 1.038l.127.18.05-.008c.257-.043.328-.049.563-.049.426 0 .724.062 1.078.222a2.428 2.428 0 0 1 1.29 1.391c.126.342.168.578.178 1 .01.424-.02.674-.122 1-.119.383-.13.403-.905 1.52-.262.378-.476.701-.476.718 0 .016-.105.32-.234.675l-.233.646.071.33c.04.182.072.354.072.383 0 .042-.04.113-.238.416l-.238.366-.322.222-.322.222-.472.072a7.001 7.001 0 0 0-1.01.214 7.189 7.189 0 0 1-.6.142h-.061l-.082-.378a4.013 4.013 0 0 1-.077-.419l.005-.042.191-.007.191-.007-.264-.366c-.248-.343-.295-.4-.733-.872-.258-.278-.482-.51-.497-.517-.016-.007-.27-.076-.565-.153a8.086 8.086 0 0 1-1.31-.443c-.008-.01-.182-.486-.388-1.057a26.918 26.918 0 0 0-.385-1.037c-.007 0-.096.05-.198.113l-.186.113-.21-.004-.211-.004-.004-.762-.004-.763.05-.137a.986.986 0 0 0 .046-.143 3.558 3.558 0 0 0-.272.094l-.283.104c-.01.004.007.09.053.257.038.138.067.27.065.293-.003.038-.009.043-.056.047-.068.006-.83-.134-.852-.157-.009-.009-.403-.504-.877-1.1-.611-.77-.86-1.093-.86-1.118 0-.02.184-.346.443-.783.243-.412.446-.759.45-.77.014-.035-.361-.255-.698-.411a4.214 4.214 0 0 0-.294-.13c0 .004.086.105.19.225.175.2.19.223.19.274 0 .038-.044.158-.15.404a8.48 8.48 0 0 1-.164.367c-.007.01-.034.017-.058.017-.044 0-.06-.02-.367-.445l-.321-.445-.083-.607-.083-.606.156-.717.156-.717-.154-.496-.155-.497-.235-.486c-.13-.267-.266-.55-.303-.628l-.067-.143-.372.07c-.243.045-.382.065-.402.057a4.536 4.536 0 0 1-.34-.296l-.31-.286-.554-.365-.555-.366-.077-.289-.077-.288-.311-.143-.312-.142-.224-.276a22.035 22.035 0 0 1-.233-.29c-.004-.006-.326-.11-.714-.23l-.707-.217h-.54l-.361.133-.385.142c-.022.009-.025.033-.025.225v.216l-.405.223c-.515.285-1.148.577-2.053.948-.515.211-.704.283-.747.282h-.057l-.394-.509-.395-.508-.457-.21a12.361 12.361 0 0 1-.476-.226c-.034-.029-.018-.084.116-.392.074-.17.134-.312.134-.317 0-.004-.165-.007-.367-.007-.217 0-.366.005-.366.013 0 .007.029.12.064.25.035.129.062.251.06.271-.004.032-.012.037-.06.04-.047.003-.231-.07-1.078-.432l-1.022-.435-.004-.054c-.005-.051 0-.059.098-.148a.51.51 0 0 0 .096-.1 6.977 6.977 0 0 0-.373-.062l-.366-.056-.306.212-.306.213-.67.076c-.422.048-.674.072-.682.063a4.392 4.392 0 0 1-.13-.284 4.112 4.112 0 0 0-.12-.268 3.84 3.84 0 0 0-.056.194 1.552 1.552 0 0 1-.066.207c-.028.035-.083.016-.244-.082a1.03 1.03 0 0 0-.17-.093c-.004.004.02.15.051.326.032.176.056.346.054.378l-.004.06-.543.143c-.298.08-.563.144-.589.145a.23.23 0 0 0-.084.02 14.88 14.88 0 0 1-1.009.305c-.032 0-.09-.046-.288-.23-.442-.407-.377-.313-.595-.854a4.974 4.974 0 0 0-.194-.45l-.14.702-.137.684-.578.007-.578.007-.139.067-.139.067h-1.737l-.62.143-.622.143-.302.28a5.893 5.893 0 0 1-.33.294c-.033.015-.779.154-.83.154-.02 0-.212-.032-.427-.072l-.391-.071-.599-.275c-.377-.174-.604-.27-.615-.263-.01.006-.144.159-.3.338l-.282.327v.31c0 .209.005.312.015.312.008 0 .2.029.429.064l.415.064.383-.213.384-.212.455-.07c.25-.038.486-.07.525-.07h.07v.107l-.281.194a7.418 7.418 0 0 0-.282.199c0 .003.086.085.191.182l.191.177h.39l.312-.359c.294-.339.315-.36.36-.36.046 0 .067.021.374.376.291.335.325.38.321.418-.004.04-.033.064-.321.263-.175.12-.507.365-.74.543l-.44.338c-.017.014.133.162.484.476l.057.052.469.072.468.072.563.296c.505.267.562.3.562.33 0 .034-.149.874-.164.925-.006.023-.036.025-.369.025h-.362l-.55-.362c-.384-.253-.669-.428-.95-.584l-.402-.223-.147-.205a2.676 2.676 0 0 0-.155-.205 27.7 27.7 0 0 0-.66.122c-.003.001.027.209.066.46.04.253.072.478.072.501 0 .039-.045.085-.405.417-.413.382-.45.409-.494.357a3.8 3.8 0 0 1-.09-.37l-.077-.351-.285-.132-.286-.132-.287.133-.288.132-.234.288-.235.288-.065.004c-.036.002-.447-.028-.915-.068l-.849-.07-.401-.222-.402-.222.004-.057.004-.056.4-.007.402-.007-.322-.297-.322-.298-.471-.217-.472-.217-.214-.197a14.627 14.627 0 0 0-.24-.217 3.361 3.361 0 0 0-.414-.092l-.39-.071-.07-.128-.07-.127-.41.19-.41.188.06.164.058.164.428.008.428.009.282.069.281.069.005.046c.003.034-.016.085-.078.2a.741.741 0 0 1-.103.163 8.49 8.49 0 0 1-.581-.065l-.561-.074-.63.073-.63.073h-.642c-.578 0-.644-.003-.676-.025l-.401-.293-.366-.27-.804-.073c-.784-.071-.814-.073-1.29-.073h-.487l-.474.219-.473.218-.314.073-.315.072-.638.294-.638.294h-.812l-.385.071c-.211.04-.4.07-.421.067l-.037-.004-.007-.524-.007-.524-.26.239-.26.238h-.194c-.107 0-.195.003-.195.006s.127.27.282.592c.213.444.282.6.282.64 0 .051-.012.063-.388.41l-.387.357v.428l-.039.035c-.021.02-.45.352-.953.738l-.915.702-1.034.293-1.035.294h-.992l-.3-.092a4.912 4.912 0 0 0-.305-.088c-.003.002.153.15.347.327.374.345.385.36.326.428-.014.015-.194.184-.402.375-.352.323-.38.346-.43.346-.03 0-.19-.051-.39-.125a3.44 3.44 0 0 0-.341-.116c-.002.005-.036.218-.075.474-.039.255-.074.473-.077.482-.017.047-.098.016-.314-.116l-.219-.134-.255.14-.254.14.126.005.127.004v.057c0 .049-.042.123-.317.567l-.317.51h-.052c-.045 0-.626-.072-.738-.091-.032-.006-.02.006.055.052.103.063.122.083.402.427.157.192.184.233.184.275 0 .027-.106.375-.236.775l-.236.725-.059.005a.882.882 0 0 1-.246-.054 2.838 2.838 0 0 0-.209-.06 2.539 2.539 0 0 0-.375.168c.003.003.198.03.433.062.236.03.436.059.446.062.048.017.013.103-.222.535l-.24.44v.776l.395 1.018c.387.997.401 1.031.713 1.677.23.477.316.67.313.7-.004.033-.058.078-.363.303-.26.192-.37.265-.397.265-.022 0-.043.006-.048.014-.004.008-.023.014-.042.014-.018 0-.037-.006-.042-.014zm68.394-10.064a.838.838 0 0 0-.149-.307c-.024-.027-.041-.042-.04-.033l.104.287c.094.26.099.27.103.207a.61.61 0 0 0-.018-.154zm-20.963-57.203c.133-.049.24-.091.237-.094-.004-.005-.624.152-.685.174-.014.005-.006.015.028.033.047.024.052.024.113 0l.307-.113zM8.78 10.485a.516.516 0 0 0-.124-.095l-.11-.065.078.08c.066.068.15.125.167.112.002-.002-.002-.017-.01-.032zm4.004-3.918l.066-.125.002-.39.002-.39-.067-.097-.067-.098-.058.051c-.195.174-.251.233-.232.246l.199.122c.099.06.183.12.188.134a.12.12 0 0 1 0 .057 2.384 2.384 0 0 1-.268.27 2.277 2.277 0 0 0-.25.248c.01.01.36.094.397.096.013 0 .048-.05.088-.124z" fill="#fefefe"/><path d="M160.377 94.245a512.301 512.301 0 0 1-2.058-2.976c-.453-.694-.544-1.72-.228-2.567a2.467 2.467 0 0 1 1.728-1.554c.39-.099.864-.1 1.246-.001.737.189 1.334.677 1.647 1.345.184.393.27.8.27 1.28.001.509-.109.963-.33 1.36-.055.1-2.038 2.984-2.154 3.134-.022.029-.047.053-.053.053a.293.293 0 0 1-.068-.074zm.308-3.881a.889.889 0 0 0 .337-.188.814.814 0 0 0 .166-.957.914.914 0 0 0-.35-.35.817.817 0 0 0-.925.135.811.811 0 0 0-.041 1.125.803.803 0 0 0 .813.235zm-6.733-4.348a512.372 512.372 0 0 1-2.058-2.976c-.496-.76-.553-1.875-.142-2.776a2.484 2.484 0 0 1 2.268-1.42c.313 0 .548.04.846.143a2.48 2.48 0 0 1 1.308 1.064c.527.896.515 2.158-.028 2.99-.087.133-1.982 2.873-2.058 2.975a.282.282 0 0 1-.068.074.282.282 0 0 1-.068-.074zm.308-3.88a.889.889 0 0 0 .337-.189c.26-.25.326-.629.166-.957a.914.914 0 0 0-.35-.35.817.817 0 0 0-.925.135.811.811 0 0 0-.041 1.125.803.803 0 0 0 .813.235zm-67.588-4.63a512.353 512.353 0 0 1-2.058-2.976c-.496-.76-.553-1.875-.142-2.777a2.484 2.484 0 0 1 2.268-1.419c.242 0 .388.017.599.069.665.164 1.21.562 1.554 1.135.368.612.486 1.467.304 2.208a2.59 2.59 0 0 1-.331.784c-.087.133-1.982 2.874-2.058 2.976a.282.282 0 0 1-.068.073.282.282 0 0 1-.068-.073zm.307-3.881a.889.889 0 0 0 .337-.188c.26-.25.327-.63.167-.957a.914.914 0 0 0-.35-.35.817.817 0 0 0-.926.135.811.811 0 0 0-.04 1.125.803.803 0 0 0 .812.235zm6.907.273a512.345 512.345 0 0 1-2.058-2.975c-.496-.76-.553-1.875-.142-2.777a2.484 2.484 0 0 1 2.268-1.419c.242 0 .388.017.599.069.665.164 1.21.562 1.554 1.135.368.612.486 1.467.304 2.208a2.59 2.59 0 0 1-.33.784c-.088.133-1.983 2.873-2.059 2.975a.282.282 0 0 1-.068.074.282.282 0 0 1-.068-.074zm.307-3.88a.889.889 0 0 0 .337-.188c.261-.25.327-.63.167-.957a.914.914 0 0 0-.35-.35.817.817 0 0 0-.926.135.811.811 0 0 0-.04 1.124.803.803 0 0 0 .812.236zm52.545-4.405a512.483 512.483 0 0 1-2.058-2.975c-.496-.76-.553-1.875-.142-2.777a2.484 2.484 0 0 1 2.268-1.419c.242 0 .388.017.599.069.665.164 1.21.562 1.554 1.135.369.612.486 1.467.304 2.208a2.59 2.59 0 0 1-.33.784c-.088.133-1.983 2.873-2.059 2.975a.282.282 0 0 1-.068.074.282.282 0 0 1-.068-.074zm.308-3.88a.889.889 0 0 0 .336-.188c.261-.25.327-.63.167-.957a.914.914 0 0 0-.35-.35.817.817 0 0 0-.925.135.811.811 0 0 0-.041 1.124.803.803 0 0 0 .813.236zM15.657 61.47a512.428 512.428 0 0 1-2.058-2.976c-.496-.76-.553-1.875-.142-2.776a2.484 2.484 0 0 1 2.268-1.42c.242 0 .388.017.6.07.665.164 1.209.561 1.554 1.134.368.613.485 1.467.303 2.209a2.59 2.59 0 0 1-.33.783c-.087.134-1.983 2.874-2.058 2.976a.282.282 0 0 1-.069.074.282.282 0 0 1-.068-.074zm.308-3.88a.889.889 0 0 0 .337-.189c.26-.25.327-.629.167-.957a.914.914 0 0 0-.35-.35.817.817 0 0 0-.926.135.811.811 0 0 0-.041 1.125.803.803 0 0 0 .813.235zm140.805.808a512.119 512.119 0 0 1-2.058-2.976c-.496-.759-.553-1.875-.142-2.776a2.484 2.484 0 0 1 2.268-1.42c.242 0 .388.018.6.07.665.164 1.209.561 1.553 1.135.369.612.486 1.466.304 2.208a2.59 2.59 0 0 1-.33.783c-.088.134-1.983 2.874-2.059 2.976a.282.282 0 0 1-.068.074.282.282 0 0 1-.068-.074zm.308-3.88a.889.889 0 0 0 .337-.188c.26-.25.326-.63.166-.957a.914.914 0 0 0-.35-.35.817.817 0 0 0-.925.134.811.811 0 0 0-.041 1.125.803.803 0 0 0 .813.236zm-131.684.738a512.243 512.243 0 0 1-2.058-2.976c-.496-.759-.553-1.875-.142-2.776a2.484 2.484 0 0 1 2.268-1.42c.242 0 .388.018.599.07.665.164 1.209.561 1.554 1.135.368.612.486 1.466.304 2.208a2.59 2.59 0 0 1-.331.783c-.087.134-1.982 2.874-2.058 2.976a.282.282 0 0 1-.068.074.282.282 0 0 1-.068-.074zm.307-3.88a.889.889 0 0 0 .337-.188c.26-.25.327-.63.167-.958a.914.914 0 0 0-.35-.35.817.817 0 0 0-.926.135.811.811 0 0 0-.04 1.125.803.803 0 0 0 .812.235zM5.738 44.238a519.757 519.757 0 0 1-2.06-2.978c-.451-.692-.542-1.718-.226-2.565a2.46 2.46 0 0 1 1.502-1.485c.283-.1.54-.144.852-.144.242 0 .388.017.599.07.665.164 1.21.56 1.554 1.134.369.613.486 1.467.304 2.208a2.59 2.59 0 0 1-.33.784c-.088.133-1.983 2.874-2.059 2.976a.282.282 0 0 1-.068.074.282.282 0 0 1-.068-.074zm.308-3.881a.889.889 0 0 0 .336-.188c.261-.25.327-.63.167-.957a.914.914 0 0 0-.35-.35.817.817 0 0 0-.925.135.811.811 0 0 0-.042 1.125.803.803 0 0 0 .814.235zm45.386.274a512.243 512.243 0 0 1-2.058-2.976c-.496-.76-.553-1.875-.142-2.777A2.484 2.484 0 0 1 51.5 33.46c.242 0 .388.017.6.069.665.164 1.209.562 1.554 1.135.368.613.485 1.467.303 2.208a2.59 2.59 0 0 1-.33.784c-.088.133-1.983 2.874-2.059 2.976a.282.282 0 0 1-.068.074.282.282 0 0 1-.068-.074zm.308-3.881a.889.889 0 0 0 .337-.188c.26-.25.326-.63.166-.957a.914.914 0 0 0-.35-.35.817.817 0 0 0-.925.135.811.811 0 0 0-.041 1.125.803.803 0 0 0 .813.235zm-28.868.274a512.428 512.428 0 0 1-2.059-2.976c-.495-.76-.552-1.875-.142-2.777a2.484 2.484 0 0 1 2.269-1.419c.241 0 .388.017.598.069.666.164 1.21.562 1.555 1.135.368.612.486 1.467.303 2.208a2.59 2.59 0 0 1-.33.784c-.087.133-1.983 2.874-2.058 2.976a.282.282 0 0 1-.068.073.282.282 0 0 1-.068-.073zm.307-3.881a.889.889 0 0 0 .337-.188c.26-.25.327-.63.167-.957a.914.914 0 0 0-.35-.35.817.817 0 0 0-.926.135.811.811 0 0 0-.04 1.125.803.803 0 0 0 .812.235zm97.28.273a512.481 512.481 0 0 1-2.057-2.975c-.496-.76-.553-1.875-.142-2.777a2.484 2.484 0 0 1 2.268-1.419c.242 0 .388.017.599.069a2.46 2.46 0 0 1 1.76 1.576c.127.348.178.653.178 1.062 0 .56-.142 1.077-.41 1.489-.088.133-1.983 2.873-2.059 2.975a.282.282 0 0 1-.068.074.282.282 0 0 1-.068-.074zm.308-3.88a.889.889 0 0 0 .337-.188c.261-.25.327-.63.167-.957a.914.914 0 0 0-.35-.35.817.817 0 0 0-.926.135.811.811 0 0 0-.04 1.124.803.803 0 0 0 .812.236zm42.442 3.134a512.246 512.246 0 0 1-2.058-2.976c-.496-.76-.553-1.875-.142-2.777a2.484 2.484 0 0 1 2.268-1.419c.242 0 .388.017.6.07.665.164 1.209.56 1.554 1.134.368.613.485 1.467.303 2.208a2.59 2.59 0 0 1-.33.784c-.087.133-1.983 2.874-2.058 2.976a.282.282 0 0 1-.069.074.282.282 0 0 1-.068-.074zm.308-3.881a.889.889 0 0 0 .337-.188c.26-.25.327-.63.167-.957a.914.914 0 0 0-.35-.35.817.817 0 0 0-.926.135.811.811 0 0 0-.041 1.125.803.803 0 0 0 .813.235zm-27.023 1.133a512.455 512.455 0 0 1-2.058-2.976c-.495-.76-.552-1.875-.142-2.776a2.483 2.483 0 0 1 1.423-1.277c.473-.163 1-.188 1.465-.07a2.483 2.483 0 0 1 1.534 1.132c.368.612.486 1.466.303 2.208a2.59 2.59 0 0 1-.33.783c-.087.134-1.983 2.874-2.058 2.976a.282.282 0 0 1-.068.074.282.282 0 0 1-.069-.074zm.308-3.88a.889.889 0 0 0 .337-.188c.26-.25.327-.63.167-.958a.914.914 0 0 0-.35-.35.817.817 0 0 0-.926.135.811.811 0 0 0-.041 1.125.803.803 0 0 0 .813.235zm33.622 3.88a512.43 512.43 0 0 1-2.059-2.976c-.495-.76-.552-1.875-.142-2.776a2.484 2.484 0 0 1 2.269-1.42c.241 0 .388.017.598.07.666.164 1.21.561 1.555 1.135.368.612.486 1.466.303 2.208-.07.286-.186.563-.327.779a532.28 532.28 0 0 1-2.061 2.98.282.282 0 0 1-.068.074.282.282 0 0 1-.068-.074zm.307-3.88a.889.889 0 0 0 .337-.188c.26-.25.327-.63.167-.958a.914.914 0 0 0-.35-.35.817.817 0 0 0-.926.135.811.811 0 0 0-.04 1.125.803.803 0 0 0 .812.235zm6.09-1.63a512.066 512.066 0 0 1-2.059-2.975c-.495-.76-.552-1.875-.142-2.776a2.484 2.484 0 0 1 2.269-1.42c.12 0 .272.008.338.017a2.5 2.5 0 0 1 1.929 1.403c.183.392.27.8.27 1.28 0 .508-.107.95-.328 1.354-.038.07-.532.796-1.098 1.613-1.1 1.59-1.092 1.579-1.112 1.579a.286.286 0 0 1-.068-.074zm.307-3.88a.889.889 0 0 0 .337-.188c.26-.25.327-.63.167-.957a.914.914 0 0 0-.35-.35.817.817 0 0 0-.926.135.811.811 0 0 0-.041 1.125.803.803 0 0 0 .813.235zm-70.857-1.812a512.27 512.27 0 0 1-2.058-2.975c-.496-.76-.553-1.875-.142-2.777a2.484 2.484 0 0 1 2.268-1.419c.242 0 .388.017.599.069.99.245 1.693 1 1.886 2.028.058.305.07.713.031 1.003a2.708 2.708 0 0 1-.39 1.096 512.27 512.27 0 0 1-2.058 2.975.282.282 0 0 1-.068.074.282.282 0 0 1-.068-.074zm.308-3.88a.889.889 0 0 0 .336-.188c.261-.25.327-.63.167-.957a.914.914 0 0 0-.35-.35.817.817 0 0 0-.925.135.811.811 0 0 0-.041 1.124.803.803 0 0 0 .813.236zm-92.64-7.66a516.528 516.528 0 0 1-2.06-2.976c-.268-.41-.41-.932-.41-1.496 0-.48.087-.887.27-1.28A2.467 2.467 0 0 1 13.215.135c.3-.096.333-.1.791-.1.459 0 .492.004.792.1.182.058.344.132.513.233.741.445 1.172 1.198 1.23 2.15.038.622-.109 1.229-.408 1.688-.087.133-1.983 2.874-2.058 2.976a.282.282 0 0 1-.069.074.282.282 0 0 1-.068-.074zm.307-3.88a.889.889 0 0 0 .337-.188c.26-.25.327-.63.167-.957a.914.914 0 0 0-.35-.35.817.817 0 0 0-.926.135.811.811 0 0 0-.041 1.125.803.803 0 0 0 .813.235z" fill="#d0f0fe"/><path d="M159.36 92.756c-.742-1.072-1.087-1.582-1.142-1.689a2.803 2.803 0 0 1-.274-.877 3.897 3.897 0 0 1-.008-.796c.089-.68.371-1.258.809-1.654a2.49 2.49 0 0 1 1.707-.654c.302 0 .549.042.824.138.936.326 1.54 1.108 1.678 2.17.025.187.02.619-.007.796a3.103 3.103 0 0 1-.13.543c-.109.316-.143.37-1.276 2.007-.63.911-1.078 1.545-1.093 1.547-.018.003-.295-.387-1.088-1.531zm1.317-2.376a.863.863 0 0 0 .374-.218.819.819 0 0 0 .153-.941.965.965 0 0 0-.367-.367.822.822 0 0 0-1.159.526 1.072 1.072 0 0 0-.001.415.85.85 0 0 0 .58.585c.095.026.319.026.42 0zm-7.742-5.853c-.742-1.072-1.087-1.582-1.142-1.688a2.75 2.75 0 0 1-.299-1.293c0-.38.042-.644.154-.978a2.44 2.44 0 0 1 1.52-1.567c.258-.096.531-.142.845-.143.315-.001.563.04.839.137.941.334 1.538 1.105 1.678 2.17.024.188.02.619-.008.797a3.133 3.133 0 0 1-.13.542c-.11.319-.15.381-1.28 2.015-.622.897-1.075 1.537-1.089 1.54-.018.003-.3-.393-1.088-1.532zm1.317-2.376a.863.863 0 0 0 .374-.218.819.819 0 0 0 .153-.94.965.965 0 0 0-.367-.368.822.822 0 0 0-1.16.526 1.071 1.071 0 0 0 0 .415.85.85 0 0 0 .58.585c.095.027.319.027.42 0zm-68.597-6.134c-.743-1.072-1.088-1.582-1.143-1.689a2.75 2.75 0 0 1-.298-1.293c0-.379.042-.644.153-.978a2.44 2.44 0 0 1 1.52-1.567c.262-.097.532-.142.853-.142.32 0 .59.045.852.142.936.347 1.518 1.108 1.657 2.165.025.187.02.618-.007.796a3.133 3.133 0 0 1-.13.543c-.11.318-.15.38-1.281 2.014-.622.898-1.074 1.538-1.088 1.54-.018.003-.3-.393-1.088-1.531zm1.317-2.376a.863.863 0 0 0 .374-.218.819.819 0 0 0 .152-.941.965.965 0 0 0-.367-.367.822.822 0 0 0-1.159.526 1.07 1.07 0 0 0 0 .415.85.85 0 0 0 .58.585c.095.026.319.026.42 0zm5.897-1.231c-.743-1.072-1.088-1.582-1.143-1.689a2.75 2.75 0 0 1-.298-1.293c0-.379.042-.644.154-.978a2.44 2.44 0 0 1 1.52-1.567c.262-.097.532-.142.852-.142.32 0 .59.045.852.142.936.347 1.519 1.108 1.657 2.165.025.187.02.618-.007.796a3.133 3.133 0 0 1-.13.542c-.11.32-.15.382-1.281 2.015-.621.897-1.074 1.538-1.088 1.54-.018.003-.3-.393-1.088-1.531zm1.317-2.376a.863.863 0 0 0 .374-.218.819.819 0 0 0 .153-.941.965.965 0 0 0-.368-.367.822.822 0 0 0-1.158.526 1.07 1.07 0 0 0-.001.415.85.85 0 0 0 .58.585c.095.026.319.026.42 0zm51.535-5.91c-.743-1.071-1.087-1.581-1.142-1.688a2.75 2.75 0 0 1-.299-1.293c0-.379.042-.644.154-.978a2.44 2.44 0 0 1 1.52-1.567c.262-.097.532-.142.852-.142.32 0 .59.045.853.142.935.347 1.518 1.108 1.656 2.165.025.187.021.618-.007.796a3.134 3.134 0 0 1-.13.542c-.11.32-.15.382-1.28 2.015-.622.897-1.075 1.538-1.089 1.54-.018.003-.3-.393-1.088-1.531zm1.317-2.375a.863.863 0 0 0 .374-.218.819.819 0 0 0 .153-.941.965.965 0 0 0-.367-.367.822.822 0 0 0-1.16.526 1.072 1.072 0 0 0 0 .415.85.85 0 0 0 .58.585c.095.026.319.026.42 0zM14.64 59.982c-.742-1.072-1.087-1.582-1.142-1.688A2.75 2.75 0 0 1 13.199 57c0-.38.042-.644.154-.978a2.44 2.44 0 0 1 1.52-1.567c.262-.097.532-.142.852-.142.32 0 .59.045.853.142.936.347 1.518 1.107 1.657 2.164.024.188.02.619-.007.796a3.134 3.134 0 0 1-.131.543c-.11.319-.15.381-1.28 2.015-.622.897-1.074 1.537-1.089 1.54-.018.003-.299-.393-1.088-1.532zm1.317-2.376a.863.863 0 0 0 .374-.218.819.819 0 0 0 .153-.94.965.965 0 0 0-.367-.368.822.822 0 0 0-1.159.526 1.07 1.07 0 0 0 0 .415.85.85 0 0 0 .579.585c.095.027.32.027.42 0zm139.796-.696c-.742-1.072-1.087-1.581-1.142-1.688a2.75 2.75 0 0 1-.299-1.293c0-.379.042-.644.154-.978a2.44 2.44 0 0 1 1.52-1.567c.262-.097.532-.142.852-.142.32 0 .59.045.853.142.936.347 1.518 1.108 1.657 2.165.024.187.02.618-.008.796a3.133 3.133 0 0 1-.13.542c-.11.319-.15.382-1.28 2.015-.622.897-1.075 1.538-1.089 1.54-.018.003-.3-.393-1.088-1.532zm1.317-2.375a.863.863 0 0 0 .374-.218.819.819 0 0 0 .153-.941.965.965 0 0 0-.367-.367.822.822 0 0 0-1.16.526 1.072 1.072 0 0 0 0 .415.85.85 0 0 0 .58.585c.095.026.319.026.42 0zm-132.693-.767c-.743-1.072-1.088-1.581-1.143-1.688a2.75 2.75 0 0 1-.298-1.293c0-.379.042-.644.153-.978a2.44 2.44 0 0 1 1.52-1.567c.262-.097.532-.142.853-.142.32 0 .59.045.852.142.936.347 1.518 1.108 1.657 2.165.025.187.02.618-.007.796a3.133 3.133 0 0 1-.13.542c-.11.319-.15.382-1.281 2.015-.622.897-1.074 1.538-1.088 1.54-.018.003-.3-.393-1.088-1.532zm1.316-2.375a.863.863 0 0 0 .375-.218.819.819 0 0 0 .152-.941.965.965 0 0 0-.367-.368.822.822 0 0 0-1.159.526 1.07 1.07 0 0 0 0 .416.85.85 0 0 0 .579.585c.096.026.32.026.42 0zM4.721 42.75c-.743-1.072-1.088-1.582-1.142-1.689a2.75 2.75 0 0 1-.3-1.292c.001-.38.043-.645.155-.979a2.44 2.44 0 0 1 1.52-1.566c.262-.098.532-.143.852-.143.32 0 .59.045.852.143.936.346 1.519 1.107 1.657 2.164.025.187.02.618-.007.796a3.133 3.133 0 0 1-.13.543c-.11.318-.15.381-1.281 2.015-.621.897-1.074 1.537-1.088 1.54-.018.002-.3-.394-1.088-1.532zm1.317-2.376a.863.863 0 0 0 .374-.218.819.819 0 0 0 .153-.941.965.965 0 0 0-.367-.367.822.822 0 0 0-1.16.526 1.07 1.07 0 0 0 0 .415.85.85 0 0 0 .58.585c.095.026.319.026.42 0zm44.377-1.231c-.742-1.072-1.087-1.582-1.142-1.689a2.75 2.75 0 0 1-.299-1.292c0-.38.042-.645.154-.979a2.44 2.44 0 0 1 1.52-1.567c.262-.097.532-.142.852-.142.32 0 .59.045.853.142.936.347 1.518 1.108 1.657 2.165.024.187.02.618-.008.796a3.133 3.133 0 0 1-.13.543c-.11.318-.15.381-1.28 2.015-.622.897-1.075 1.537-1.089 1.54-.018.002-.3-.394-1.088-1.532zm1.317-2.376a.863.863 0 0 0 .374-.218.819.819 0 0 0 .153-.941.965.965 0 0 0-.367-.367.822.822 0 0 0-1.159.526 1.07 1.07 0 0 0 0 .415.85.85 0 0 0 .579.585c.095.026.32.026.42 0zm-29.877-1.231c-.743-1.072-1.088-1.582-1.143-1.689a2.75 2.75 0 0 1-.298-1.293c0-.379.042-.644.153-.978a2.44 2.44 0 0 1 1.52-1.567c.262-.097.532-.142.853-.142.32 0 .59.045.852.142.936.347 1.518 1.108 1.657 2.165.024.187.02.618-.007.796a3.133 3.133 0 0 1-.13.543c-.11.318-.15.38-1.281 2.014-.622.898-1.074 1.538-1.088 1.54-.018.003-.3-.393-1.088-1.531zm1.316-2.376a.863.863 0 0 0 .374-.218.819.819 0 0 0 .153-.941.965.965 0 0 0-.367-.367.822.822 0 0 0-1.159.526 1.07 1.07 0 0 0 0 .415.85.85 0 0 0 .579.585c.096.026.32.026.42 0zm96.272-1.231c-.743-1.072-1.088-1.582-1.142-1.689a2.75 2.75 0 0 1-.3-1.293c.001-.379.043-.644.155-.978a2.44 2.44 0 0 1 1.52-1.567c.262-.097.532-.142.852-.142.32 0 .59.045.852.142a2.44 2.44 0 0 1 1.52 1.569c.113.335.154.598.153.983 0 .356-.045.634-.154.951-.109.32-.149.382-1.28 2.015-.621.897-1.074 1.538-1.088 1.54-.018.003-.3-.393-1.088-1.531zm1.317-2.376a.863.863 0 0 0 .374-.218.819.819 0 0 0 .153-.941.965.965 0 0 0-.368-.367.822.822 0 0 0-1.158.526 1.07 1.07 0 0 0-.001.415.85.85 0 0 0 .58.585c.095.026.319.026.42 0zm41.432 1.629c-.742-1.072-1.087-1.582-1.142-1.689a2.75 2.75 0 0 1-.299-1.292c0-.38.042-.645.154-.979a2.44 2.44 0 0 1 1.52-1.566c.262-.098.532-.143.852-.143.32 0 .59.045.853.143.936.346 1.518 1.107 1.657 2.164.024.187.02.618-.007.796a3.134 3.134 0 0 1-.131.543c-.11.318-.15.381-1.28 2.015-.622.897-1.074 1.537-1.089 1.54-.018.002-.299-.394-1.088-1.532zm1.317-2.376a.863.863 0 0 0 .374-.218.819.819 0 0 0 .153-.941.965.965 0 0 0-.367-.367.822.822 0 0 0-1.159.526 1.072 1.072 0 0 0 0 .415.85.85 0 0 0 .579.585c.095.026.32.026.42 0zm-28.032-.372c-.742-1.072-1.087-1.582-1.142-1.688a2.75 2.75 0 0 1-.299-1.293c0-.379.043-.644.154-.978a2.425 2.425 0 0 1 1.085-1.362c.388-.23.825-.349 1.288-.349.64 0 1.227.226 1.7.654.437.397.72.973.809 1.655.024.187.02.618-.007.796a3.133 3.133 0 0 1-.131.542c-.11.319-.149.382-1.28 2.015-.622.897-1.074 1.538-1.089 1.54-.018.003-.299-.393-1.088-1.532zm1.317-2.376a.863.863 0 0 0 .374-.217.819.819 0 0 0 .153-.942.965.965 0 0 0-.367-.367.822.822 0 0 0-1.159.526 1.07 1.07 0 0 0 0 .415.85.85 0 0 0 .579.586c.096.026.32.026.42 0zm32.613 2.376c-.743-1.072-1.088-1.582-1.143-1.688a2.75 2.75 0 0 1-.298-1.293c0-.379.042-.644.153-.978a2.44 2.44 0 0 1 1.52-1.567c.262-.097.532-.142.853-.142.32 0 .59.045.852.142.936.347 1.518 1.108 1.657 2.165.024.187.02.618-.007.796a3.133 3.133 0 0 1-.13.542c-.11.319-.15.382-1.281 2.015-.622.897-1.074 1.538-1.088 1.54-.018.003-.3-.393-1.088-1.532zm1.316-2.376a.863.863 0 0 0 .374-.217.819.819 0 0 0 .153-.942.965.965 0 0 0-.367-.367.822.822 0 0 0-1.159.526 1.071 1.071 0 0 0 0 .415.85.85 0 0 0 .579.586c.096.026.32.026.42 0zm5.08-3.133c-.742-1.072-1.087-1.582-1.142-1.689a2.75 2.75 0 0 1-.299-1.292c.001-.38.043-.645.154-.979a2.44 2.44 0 0 1 1.52-1.566c.262-.097.532-.142.853-.142.32 0 .59.045.852.142a2.44 2.44 0 0 1 1.52 1.568 2.8 2.8 0 0 1 .153.984c0 .357-.046.635-.154.95-.11.32-.149.382-1.28 2.016-.622.897-1.074 1.537-1.089 1.54-.018.003-.299-.393-1.088-1.532zm1.317-2.376a.863.863 0 0 0 .374-.218.819.819 0 0 0 .153-.94.965.965 0 0 0-.367-.368.822.822 0 0 0-1.159.526 1.071 1.071 0 0 0 0 .415.85.85 0 0 0 .579.585c.096.027.32.027.42 0zm-71.866-3.316c-.742-1.072-1.087-1.582-1.142-1.689a2.75 2.75 0 0 1-.299-1.293c0-.379.042-.644.154-.978a2.44 2.44 0 0 1 1.52-1.567c.262-.097.532-.142.852-.142.32 0 .59.045.853.142a2.44 2.44 0 0 1 1.52 1.567c.112.337.153.6.152.985 0 .357-.045.635-.153.951-.11.32-.15.382-1.28 2.015-.622.897-1.075 1.538-1.089 1.54-.018.003-.3-.393-1.088-1.531zm1.317-2.376a.863.863 0 0 0 .374-.218.819.819 0 0 0 .153-.941.965.965 0 0 0-.367-.367.822.822 0 0 0-1.16.526 1.07 1.07 0 0 0 0 .415.85.85 0 0 0 .58.585c.095.026.319.026.42 0zM12.92 5.693c-.74-1.07-1.087-1.582-1.142-1.689a2.746 2.746 0 0 1-.298-1.293c0-.38.041-.644.152-.976A2.446 2.446 0 0 1 14.006.028c.333 0 .547.034.83.133.937.326 1.54 1.105 1.68 2.17.024.187.02.618-.007.796a3.133 3.133 0 0 1-.131.543c-.11.318-.15.381-1.28 2.015-.623.898-1.074 1.537-1.089 1.54-.018.002-.298-.393-1.088-1.532zm1.317-2.376a.863.863 0 0 0 .374-.218.819.819 0 0 0 .153-.941.965.965 0 0 0-.367-.367.822.822 0 0 0-1.159.526 1.07 1.07 0 0 0 0 .415.85.85 0 0 0 .579.585c.095.026.32.026.42 0z" fill="#a0e3fe"/><path d="M159.441 92.857c-.546-.789-1.03-1.488-1.074-1.554-.34-.498-.503-1.228-.422-1.888.13-1.063.72-1.84 1.648-2.174.3-.109.505-.143.852-.143s.552.034.853.143c.527.19.978.551 1.261 1.012.274.445.427 1.055.404 1.612-.024.561-.167 1.03-.436 1.431-.275.41-2.072 2.994-2.082 2.994-.006 0-.458-.645-1.004-1.433zm1.29-2.482a.85.85 0 0 0 .54-.572.959.959 0 0 0-.006-.458.863.863 0 0 0-.559-.553.856.856 0 0 0-.493.009.828.828 0 0 0-.483 1.16.891.891 0 0 0 .543.434c.113.028.35.018.459-.02zm-7.715-5.747c-.546-.788-1.03-1.487-1.074-1.553-.34-.499-.504-1.228-.422-1.889.13-1.063.72-1.84 1.648-2.174.3-.108.505-.142.852-.142.146 0 .31.008.374.018a2.552 2.552 0 0 1 1.393.7c.406.403.652.94.734 1.6.081.658-.082 1.388-.422 1.887-.458.67-2.07 2.987-2.079 2.987-.006 0-.458-.645-1.004-1.434zm1.29-2.482a.846.846 0 0 0 .536-.565.816.816 0 0 0-.195-.787.784.784 0 0 0-.606-.26.828.828 0 0 0-.736 1.199.891.891 0 0 0 .543.433c.113.029.35.019.459-.02zm-68.57-6.028l-1.075-1.554c-.34-.498-.503-1.228-.422-1.888.131-1.063.72-1.84 1.648-2.174.3-.109.506-.143.853-.143s.552.034.852.143c.929.334 1.517 1.11 1.648 2.174.082.66-.081 1.39-.422 1.888-.458.67-2.07 2.987-2.078 2.987-.006 0-.458-.645-1.004-1.433zm1.29-2.482a.846.846 0 0 0 .536-.565.816.816 0 0 0-.195-.787.784.784 0 0 0-.606-.261.828.828 0 0 0-.736 1.199.891.891 0 0 0 .543.434c.113.028.35.018.458-.02zm5.924-1.125c-.546-.789-1.03-1.488-1.074-1.554-.34-.498-.504-1.228-.423-1.888.131-1.064.72-1.84 1.648-2.174.301-.109.506-.143.853-.143s.552.034.852.143c.929.334 1.518 1.11 1.648 2.174.082.66-.081 1.39-.422 1.888-.458.67-2.07 2.987-2.078 2.987-.006 0-.458-.645-1.004-1.433zm1.29-2.482a.846.846 0 0 0 .536-.565.816.816 0 0 0-.195-.787.784.784 0 0 0-.606-.261.828.828 0 0 0-.736 1.199.891.891 0 0 0 .543.434c.113.028.35.018.458-.02zm51.562-5.803c-.546-.789-1.03-1.488-1.074-1.554-.34-.498-.504-1.228-.422-1.888.13-1.064.72-1.84 1.648-2.175.3-.108.505-.142.852-.142s.552.034.853.142c.928.335 1.517 1.111 1.648 2.175.08.66-.082 1.39-.423 1.888-.457.67-2.07 2.987-2.078 2.987-.006 0-.458-.645-1.004-1.433zm1.29-2.482a.846.846 0 0 0 .536-.565.816.816 0 0 0-.195-.787.784.784 0 0 0-.606-.261.828.828 0 0 0-.736 1.199.891.891 0 0 0 .543.434c.113.028.35.018.459-.02zm-132.37-1.661l-1.075-1.553c-.34-.499-.503-1.228-.422-1.889.13-1.063.72-1.84 1.648-2.174.3-.108.505-.142.852-.142.348 0 .552.034.853.142.928.334 1.517 1.111 1.648 2.174.081.66-.082 1.39-.422 1.889-.458.67-2.07 2.987-2.079 2.987-.006 0-.458-.645-1.004-1.434zm1.29-2.482a.846.846 0 0 0 .536-.565.816.816 0 0 0-.195-.787.784.784 0 0 0-.606-.26.828.828 0 0 0-.736 1.199.891.891 0 0 0 .542.433c.114.029.35.019.459-.02zm139.822-.59c-.546-.788-1.03-1.487-1.074-1.553-.34-.498-.504-1.228-.422-1.889.13-1.063.72-1.84 1.648-2.174.3-.108.505-.142.852-.142s.552.034.853.142c.928.335 1.517 1.111 1.648 2.174.081.66-.082 1.39-.422 1.889-.458.67-2.07 2.987-2.079 2.987-.006 0-.458-.645-1.004-1.434zm1.29-2.481a.846.846 0 0 0 .536-.566.816.816 0 0 0-.194-.786.784.784 0 0 0-.607-.261.828.828 0 0 0-.736 1.199.891.891 0 0 0 .543.433c.113.03.35.019.459-.02zm-132.666-.66l-1.075-1.554c-.34-.499-.503-1.228-.422-1.889.131-1.063.72-1.84 1.648-2.174.3-.108.506-.142.853-.142s.552.034.852.142c.929.335 1.517 1.111 1.648 2.174.082.66-.082 1.39-.422 1.889-.458.67-2.07 2.987-2.078 2.987-.006 0-.458-.645-1.004-1.434zm1.29-2.483a.846.846 0 0 0 .536-.565.816.816 0 0 0-.195-.786.784.784 0 0 0-.606-.261.828.828 0 0 0-.736 1.199.891.891 0 0 0 .543.433c.113.029.35.019.458-.02zM4.802 42.851c-.546-.789-1.03-1.488-1.074-1.554-.34-.498-.504-1.228-.423-1.888.131-1.063.72-1.84 1.649-2.174.3-.108.505-.143.852-.143s.552.035.852.143c.929.334 1.518 1.11 1.648 2.174.082.66-.081 1.39-.422 1.888-.455.667-2.07 2.987-2.078 2.987-.006 0-.458-.645-1.004-1.433zm1.29-2.482a.846.846 0 0 0 .536-.565.816.816 0 0 0-.195-.787.784.784 0 0 0-.606-.26.828.828 0 0 0-.736 1.199.891.891 0 0 0 .543.433c.113.029.35.018.459-.02zm44.404-1.125c-.546-.789-1.03-1.488-1.074-1.554-.34-.498-.504-1.228-.422-1.888.13-1.063.72-1.84 1.648-2.174.3-.109.505-.143.852-.143s.552.034.853.143c.928.334 1.517 1.11 1.648 2.174.081.66-.082 1.39-.422 1.888-.458.67-2.07 2.987-2.079 2.987-.006 0-.458-.645-1.004-1.433zm1.29-2.482a.846.846 0 0 0 .536-.565.816.816 0 0 0-.194-.787.784.784 0 0 0-.607-.26.828.828 0 0 0-.736 1.199.891.891 0 0 0 .543.433c.113.028.35.018.459-.02zm-29.85-1.125l-1.075-1.554c-.34-.498-.503-1.228-.422-1.888.131-1.063.72-1.84 1.648-2.174.3-.109.505-.143.853-.143.347 0 .552.034.852.143.928.334 1.517 1.11 1.648 2.174.081.66-.082 1.39-.422 1.888-.458.67-2.07 2.987-2.078 2.987-.007 0-.458-.645-1.004-1.433zm1.29-2.482a.846.846 0 0 0 .536-.565.816.816 0 0 0-.195-.787.784.784 0 0 0-.606-.261.828.828 0 0 0-.736 1.199.891.891 0 0 0 .543.434c.113.028.35.018.458-.02zm96.298-1.125c-.546-.789-1.03-1.488-1.074-1.554-.34-.498-.504-1.228-.423-1.888.131-1.064.72-1.84 1.648-2.174.301-.109.506-.143.853-.143s.552.034.852.143c.929.334 1.517 1.11 1.648 2.175.082.658-.081 1.389-.422 1.887-.458.67-2.07 2.987-2.078 2.987-.006 0-.458-.645-1.004-1.433zm1.29-2.482a.846.846 0 0 0 .536-.565.816.816 0 0 0-.195-.787.784.784 0 0 0-.606-.261.828.828 0 0 0-.736 1.199.891.891 0 0 0 .543.434c.113.028.35.018.458-.02zm41.46 1.735l-1.075-1.554c-.34-.498-.503-1.228-.422-1.888.13-1.063.72-1.84 1.648-2.174.3-.108.505-.143.852-.143.348 0 .552.035.853.143.928.334 1.517 1.11 1.648 2.174.081.66-.082 1.39-.422 1.888-.458.671-2.07 2.987-2.079 2.987-.006 0-.458-.645-1.004-1.433zm1.29-2.482a.846.846 0 0 0 .536-.565.816.816 0 0 0-.195-.787.784.784 0 0 0-.606-.26.828.828 0 0 0-.736 1.199.891.891 0 0 0 .542.433c.114.029.35.018.459-.02zm-28.005-.266l-1.075-1.553c-.34-.499-.503-1.228-.422-1.889.08-.655.324-1.188.728-1.592.372-.372.861-.619 1.4-.706.062-.01.227-.018.373-.018.347 0 .551.034.852.142.928.334 1.517 1.111 1.648 2.174.081.66-.082 1.39-.422 1.889-.458.67-2.07 2.987-2.078 2.987-.007 0-.458-.645-1.004-1.434zm1.29-2.482a.846.846 0 0 0 .536-.565.816.816 0 0 0-.195-.786.784.784 0 0 0-.606-.261.828.828 0 0 0-.736 1.199.891.891 0 0 0 .542.433c.114.029.35.019.46-.02zm32.639 2.482l-1.075-1.553c-.34-.499-.503-1.228-.422-1.889.131-1.063.72-1.84 1.648-2.174.3-.108.505-.142.853-.142.347 0 .552.034.852.142.928.334 1.517 1.111 1.648 2.174.081.66-.082 1.391-.422 1.889-.492.718-2.07 2.987-2.078 2.987-.007 0-.458-.645-1.004-1.434zm1.29-2.482a.846.846 0 0 0 .536-.565.816.816 0 0 0-.195-.786.784.784 0 0 0-.606-.261.828.828 0 0 0-.736 1.199.891.891 0 0 0 .543.433c.113.029.35.019.458-.02zm5.107-3.027l-1.075-1.553c-.34-.499-.503-1.229-.422-1.889.13-1.063.72-1.84 1.648-2.174.3-.108.505-.143.853-.143.347 0 .551.035.852.143a2.42 2.42 0 0 1 1.392 1.258c.283.597.352 1.345.186 2.006a2.66 2.66 0 0 1-.353.8c-.378.555-2.069 2.986-2.077 2.986a83.2 83.2 0 0 1-1.004-1.434zm1.29-2.482a.846.846 0 0 0 .536-.565.816.816 0 0 0-.195-.787.784.784 0 0 0-.606-.26.828.828 0 0 0-.736 1.199.891.891 0 0 0 .542.433c.114.029.35.018.46-.02zm-71.84-3.21c-.546-.789-1.03-1.488-1.074-1.554-.34-.498-.504-1.228-.422-1.888.13-1.064.72-1.84 1.648-2.175.3-.108.505-.142.852-.142s.552.034.853.142c.928.335 1.517 1.111 1.648 2.175.081.66-.082 1.39-.422 1.888-.458.67-2.07 2.987-2.079 2.987-.006 0-.458-.645-1.004-1.433zm1.29-2.482a.846.846 0 0 0 .536-.565.816.816 0 0 0-.195-.787.784.784 0 0 0-.606-.261.828.828 0 0 0-.736 1.199.891.891 0 0 0 .543.434c.113.028.35.018.459-.02zM13.004 5.794a864.552 864.552 0 0 1-1.074-1.553c-.629-.924-.582-2.354.107-3.259.267-.35.681-.648 1.118-.804.307-.11.506-.143.852-.143.146 0 .31.008.374.018.54.088 1.027.334 1.403.71.4.4.643.935.724 1.589.081.66-.082 1.39-.422 1.888-.457.67-2.07 2.987-2.079 2.987-.006 0-.458-.645-1.003-1.433zm1.29-2.482a.846.846 0 0 0 .536-.565.816.816 0 0 0-.195-.787.784.784 0 0 0-.606-.26.828.828 0 0 0-.736 1.199.891.891 0 0 0 .542.433c.114.028.35.018.459-.02z" fill="#6fd5fe"/><path d="M159.379 92.756c-.897-1.293-1.069-1.549-1.153-1.715a2.685 2.685 0 0 1-.29-1.262c.001-.503.085-.887.284-1.3.354-.736 1.028-1.225 1.866-1.354.382-.06.86-.01 1.23.129.86.321 1.41 1.002 1.597 1.972.037.197.052.684.027.89a2.835 2.835 0 0 1-.314 1.008c-.07.126-2.162 3.152-2.18 3.152-.007 0-.487-.684-1.067-1.52zm1.242-2.347a.844.844 0 0 0 .662-.63.825.825 0 0 0-.224-.78.809.809 0 0 0-.59-.246.84.84 0 0 0-.807.614.915.915 0 0 0 .013.478c.08.243.261.434.498.523.16.06.28.07.448.04zm-7.667-5.88c-.897-1.295-1.07-1.55-1.153-1.717a2.685 2.685 0 0 1-.29-1.261c0-.245.014-.407.05-.596.18-.928.744-1.614 1.589-1.93a2.4 2.4 0 0 1 .87-.15c.973 0 1.834.536 2.237 1.395.188.4.272.793.272 1.28 0 .459-.086.846-.275 1.236-.077.16-.225.38-1.152 1.718a96.963 96.963 0 0 1-1.078 1.54c-.008.003-.49-.68-1.07-1.516zm1.242-2.349c.659-.117.912-.935.437-1.41a.809.809 0 0 0-.589-.245.84.84 0 0 0-.807.613.915.915 0 0 0 .013.478c.08.243.261.434.498.523.16.06.28.071.448.041zm-68.522-6.162c-.898-1.294-1.07-1.55-1.154-1.716a2.685 2.685 0 0 1-.289-1.262c0-.503.084-.887.283-1.3.354-.736 1.028-1.225 1.866-1.354.383-.06.86-.01 1.23.129.845.316 1.41 1.001 1.588 1.93.037.188.05.35.05.595.001.458-.085.846-.274 1.235-.078.16-.226.38-1.153 1.719a96.935 96.935 0 0 1-1.078 1.54c-.008.002-.49-.68-1.07-1.516zm1.241-2.348c.66-.118.913-.936.438-1.411a.809.809 0 0 0-.59-.245.84.84 0 0 0-.807.614.915.915 0 0 0 .014.478c.079.243.26.434.498.523.159.06.279.07.447.04zm5.973-1.26c-.897-1.293-1.07-1.549-1.153-1.715a2.685 2.685 0 0 1-.29-1.262c0-.503.084-.888.283-1.301.354-.736 1.028-1.224 1.867-1.354.382-.059.86-.008 1.23.13.845.316 1.409 1.001 1.588 1.93.036.188.05.35.05.595 0 .458-.086.846-.275 1.235-.078.16-.226.38-1.152 1.719a96.937 96.937 0 0 1-1.079 1.54c-.008.002-.489-.68-1.069-1.516zm1.242-2.347c.659-.118.912-.936.437-1.411a.809.809 0 0 0-.59-.245.84.84 0 0 0-.806.613.915.915 0 0 0 .013.479c.08.243.26.433.498.523.16.06.28.07.448.04zm51.61-5.937c-.897-1.294-1.07-1.55-1.153-1.716a2.685 2.685 0 0 1-.29-1.262c0-.503.084-.888.283-1.301.355-.736 1.028-1.224 1.867-1.354.382-.059.86-.008 1.23.13.845.316 1.409 1.001 1.588 1.93.036.188.05.35.05.595 0 .458-.086.846-.275 1.235-.077.16-.225.38-1.152 1.719a96.967 96.967 0 0 1-1.079 1.54c-.008.002-.489-.68-1.069-1.516zm1.242-2.348c.659-.118.912-.936.437-1.411a.809.809 0 0 0-.589-.245.84.84 0 0 0-.807.613.915.915 0 0 0 .013.479c.08.243.261.433.498.523.16.06.28.07.448.04zM14.66 59.983c-.898-1.294-1.07-1.55-1.154-1.716a2.685 2.685 0 0 1-.29-1.261c.001-.504.085-.888.284-1.301.354-.736 1.028-1.225 1.866-1.354.382-.06.86-.009 1.23.13.845.315 1.41 1 1.588 1.93.036.188.05.35.05.595 0 .458-.086.845-.275 1.235-.077.16-.225.38-1.152 1.718a96.938 96.938 0 0 1-1.078 1.54c-.008.003-.49-.68-1.07-1.516zm1.241-2.348c.659-.117.913-.935.437-1.41a.809.809 0 0 0-.589-.246.84.84 0 0 0-.807.614.915.915 0 0 0 .013.478c.08.243.261.434.499.523.159.06.279.071.447.041zm139.871-.723c-.897-1.294-1.069-1.55-1.153-1.716a2.685 2.685 0 0 1-.29-1.262c0-.503.084-.888.284-1.301.354-.736 1.027-1.224 1.866-1.354.382-.059.86-.009 1.23.13.845.315 1.41 1.001 1.588 1.93.036.188.05.35.05.595 0 .458-.086.846-.275 1.235-.077.16-.225.38-1.152 1.718a96.92 96.92 0 0 1-1.078 1.54c-.008.003-.49-.679-1.07-1.515zm1.242-2.349c.659-.117.912-.935.437-1.41a.809.809 0 0 0-.589-.245.84.84 0 0 0-.807.613.915.915 0 0 0 .013.479c.08.243.261.433.498.523.16.06.28.07.448.04zM24.396 53.77c-.898-1.294-1.07-1.55-1.154-1.717a2.685 2.685 0 0 1-.29-1.261c.001-.503.085-.888.284-1.301.354-.736 1.028-1.224 1.866-1.354.383-.059.86-.009 1.23.13.845.315 1.41 1 1.588 1.93.037.188.05.35.05.595.001.458-.085.845-.274 1.235-.078.16-.226.38-1.153 1.718a96.968 96.968 0 0 1-1.078 1.54c-.008.003-.49-.679-1.07-1.515zm1.241-2.349c.66-.117.913-.935.438-1.41a.809.809 0 0 0-.59-.245.84.84 0 0 0-.807.613.915.915 0 0 0 .014.479c.079.242.26.433.498.522.159.06.279.071.447.041zM4.74 42.751c-.897-1.294-1.07-1.55-1.153-1.716a2.684 2.684 0 0 1-.29-1.262c0-.503.084-.887.283-1.3.354-.736 1.028-1.225 1.867-1.354.382-.06.86-.01 1.23.129.845.316 1.409 1.001 1.588 1.93.036.188.05.35.05.595 0 .459-.086.846-.275 1.236-.077.16-.225.38-1.152 1.718a97.136 97.136 0 0 1-1.079 1.54c-.008.003-.489-.68-1.069-1.516zm1.242-2.348c.659-.118.912-.936.437-1.41a.809.809 0 0 0-.589-.246.84.84 0 0 0-.807.614.915.915 0 0 0 .013.478c.08.243.261.434.498.523.16.06.28.07.448.04zm44.452-1.259c-.897-1.294-1.069-1.55-1.153-1.716a2.685 2.685 0 0 1-.29-1.262c.001-.503.085-.887.284-1.3.354-.736 1.028-1.225 1.866-1.354.382-.06.86-.01 1.23.129.845.316 1.41 1.001 1.588 1.93.036.188.05.35.05.595 0 .459-.086.846-.275 1.235-.077.16-.225.38-1.152 1.719a96.98 96.98 0 0 1-1.078 1.54c-.008.003-.49-.68-1.07-1.516zm1.242-2.348c.659-.118.912-.936.437-1.41a.809.809 0 0 0-.589-.246.84.84 0 0 0-.807.614.915.915 0 0 0 .013.478c.08.243.261.434.498.523.16.06.28.07.448.04zm-29.802-1.259c-.898-1.294-1.07-1.55-1.154-1.716a2.685 2.685 0 0 1-.29-1.262c.001-.503.085-.887.284-1.3.354-.736 1.028-1.225 1.866-1.354.383-.06.86-.01 1.23.129.845.316 1.41 1.001 1.588 1.93.037.188.05.35.05.595 0 .458-.085.846-.274 1.235-.078.16-.226.38-1.153 1.719a96.964 96.964 0 0 1-1.078 1.54c-.008.002-.49-.68-1.07-1.516zm1.241-2.348c.66-.118.913-.936.437-1.411a.809.809 0 0 0-.588-.245.84.84 0 0 0-.808.614.915.915 0 0 0 .013.478c.08.243.262.434.499.523.159.06.279.07.447.04zm96.347-1.26c-.897-1.293-1.07-1.549-1.153-1.715a2.685 2.685 0 0 1-.29-1.262c0-.244.014-.407.05-.595.18-.929.743-1.614 1.589-1.93a2.4 2.4 0 0 1 .87-.151c.973 0 1.834.537 2.237 1.395.178.38.256.721.267 1.18.01.408-.022.654-.132.998-.112.353-.134.387-1.29 2.057a96.936 96.936 0 0 1-1.079 1.54c-.008.002-.489-.68-1.069-1.516zm1.242-2.347c.659-.118.912-.936.437-1.411a.809.809 0 0 0-.59-.245.84.84 0 0 0-.806.613.915.915 0 0 0 .013.479c.08.243.26.433.498.523.16.06.28.07.448.04zm41.508 1.601c-.898-1.294-1.07-1.55-1.154-1.716a2.685 2.685 0 0 1-.29-1.262c.001-.503.085-.887.284-1.3.354-.736 1.028-1.225 1.866-1.354.382-.06.86-.01 1.23.129.845.316 1.41 1.001 1.588 1.93.036.188.05.35.05.595 0 .459-.086.846-.275 1.235-.077.16-.225.38-1.152 1.719a96.977 96.977 0 0 1-1.078 1.54c-.008.003-.49-.68-1.07-1.516zm1.241-2.348c.659-.118.913-.936.437-1.41a.809.809 0 0 0-.589-.246.84.84 0 0 0-.807.614.915.915 0 0 0 .013.478c.08.243.261.434.499.523.159.06.279.07.447.04zm-27.956-.4c-.898-1.294-1.07-1.55-1.154-1.716a2.685 2.685 0 0 1-.29-1.261c.001-.503.085-.888.284-1.301.354-.736 1.028-1.224 1.866-1.354.383-.059.86-.009 1.23.13.845.315 1.41 1 1.588 1.93.036.188.05.35.05.595 0 .458-.085.845-.274 1.235-.078.16-.226.38-1.153 1.718a96.922 96.922 0 0 1-1.078 1.54c-.008.003-.49-.68-1.07-1.515zm1.241-2.348c.66-.117.913-.935.437-1.41a.809.809 0 0 0-.589-.245.84.84 0 0 0-.807.613.915.915 0 0 0 .013.478c.08.243.261.434.499.523.159.06.279.071.447.041zm32.688 2.349c-.898-1.295-1.07-1.55-1.154-1.717a2.685 2.685 0 0 1-.29-1.261c.001-.503.085-.888.284-1.301.354-.736 1.028-1.224 1.866-1.354.383-.059.86-.009 1.23.13.845.315 1.41 1 1.588 1.93.037.188.05.35.05.595 0 .458-.085.846-.274 1.235-.078.16-.227.381-1.153 1.718a97.28 97.28 0 0 1-1.078 1.54c-.008.003-.49-.68-1.07-1.515zm1.241-2.349c.66-.117.913-.935.437-1.41a.809.809 0 0 0-.588-.245.84.84 0 0 0-.808.613.915.915 0 0 0 .013.478c.08.243.262.434.499.523.159.06.279.071.447.041zm5.155-3.161c-.897-1.294-1.069-1.55-1.153-1.716a2.685 2.685 0 0 1-.29-1.261c.001-.504.085-.888.284-1.302.354-.735 1.028-1.224 1.866-1.353.383-.06.86-.009 1.23.13.86.32 1.41 1.001 1.597 1.971.037.197.053.684.027.89a2.837 2.837 0 0 1-.314 1.008c-.07.126-2.162 3.153-2.18 3.153-.007 0-.487-.684-1.067-1.52zm1.242-2.348c.66-.117.913-.935.437-1.41a.809.809 0 0 0-.589-.246.84.84 0 0 0-.807.614.915.915 0 0 0 .013.478c.08.243.261.434.499.523.159.06.279.071.447.041zm-71.79-3.344c-.898-1.294-1.07-1.55-1.154-1.716a2.685 2.685 0 0 1-.29-1.262c0-.503.084-.888.283-1.301.355-.736 1.028-1.224 1.867-1.354.382-.059.86-.008 1.23.13.611.228 1.079.65 1.355 1.224.19.394.266.725.278 1.2.01.408-.022.654-.132.998-.112.353-.133.387-1.29 2.057a96.938 96.938 0 0 1-1.078 1.54c-.009.002-.49-.68-1.07-1.516zm1.24-2.348c.66-.118.913-.936.438-1.411a.809.809 0 0 0-.589-.245.84.84 0 0 0-.807.613.915.915 0 0 0 .013.479c.08.243.261.433.498.523.16.06.28.07.448.04zM12.942 5.694c-.897-1.293-1.07-1.55-1.154-1.716a2.746 2.746 0 0 1-.275-.926 4.183 4.183 0 0 1 .027-.889c.112-.584.338-1.037.698-1.395a2.454 2.454 0 0 1 1.77-.728c.319 0 .592.047.87.15.845.317 1.41 1.002 1.588 1.931.036.188.05.35.05.595 0 .459-.086.846-.275 1.235-.077.16-.225.38-1.152 1.719a97.16 97.16 0 0 1-1.078 1.54c-.008.002-.49-.68-1.07-1.516zm1.241-2.348c.659-.118.913-.936.437-1.41a.809.809 0 0 0-.589-.246.84.84 0 0 0-.807.614.915.915 0 0 0 .013.478c.08.243.261.434.499.523.159.06.279.07.447.04z" fill="#4fccfe"/><path d="M160.385 94.196a786.258 786.258 0 0 1-2.007-2.9c-.56-.836-.586-2.087-.06-2.995.272-.47.743-.856 1.28-1.048 1.212-.435 2.557.118 3.09 1.27.314.681.348 1.558.087 2.256-.079.212-.164.371-.33.616-.44.645-1.98 2.859-1.994 2.863-.01.003-.039-.025-.066-.062zm.358-3.812a.846.846 0 0 0 .536-1.04.883.883 0 0 0-.573-.566.88.88 0 0 0-.493.008.848.848 0 0 0-.585.798c.001.392.263.728.644.825a1 1 0 0 0 .47-.025zm-6.783-4.417a786.674 786.674 0 0 1-2.007-2.9c-.561-.835-.586-2.087-.06-2.995.272-.47.743-.855 1.279-1.047 1.213-.435 2.558.118 3.09 1.27.315.681.35 1.556.088 2.255-.079.212-.164.371-.33.616-.44.646-1.98 2.86-1.995 2.864-.008.002-.038-.026-.065-.063zm.358-3.811a.846.846 0 0 0 .514-.5.847.847 0 0 0-.566-1.112.914.914 0 0 0-.478.013.848.848 0 0 0-.585.798c0 .392.263.728.644.825a1 1 0 0 0 .47-.024zm-67.638-4.7a786.328 786.328 0 0 1-2.007-2.9c-.561-.835-.587-2.086-.06-2.994.272-.47.742-.856 1.279-1.048 1.213-.435 2.558.118 3.09 1.27.315.682.35 1.557.088 2.256-.08.212-.165.37-.331.616-.44.645-1.98 2.859-1.994 2.863-.009.003-.038-.025-.065-.062zm.357-3.81a.846.846 0 0 0 .514-.5.847.847 0 0 0-.565-1.112.914.914 0 0 0-.479.013.848.848 0 0 0-.584.798c0 .392.263.728.644.824a1 1 0 0 0 .47-.024zm6.857.204a786.237 786.237 0 0 1-2.007-2.9c-.561-.836-.587-2.088-.06-2.995.272-.47.743-.856 1.279-1.048 1.213-.435 2.558.118 3.09 1.27.315.682.35 1.557.088 2.256-.08.212-.165.37-.331.616-.439.645-1.98 2.859-1.994 2.863-.009.003-.038-.025-.065-.062zm.358-3.812a.846.846 0 0 0 .513-.499.847.847 0 0 0-.565-1.112.915.915 0 0 0-.479.013.848.848 0 0 0-.584.798c0 .392.263.728.644.824a1 1 0 0 0 .47-.024zm52.494-4.473a786.831 786.831 0 0 1-2.007-2.9c-.561-.836-.586-2.088-.06-2.995.272-.47.743-.856 1.279-1.048 1.213-.435 2.558.118 3.09 1.27.315.682.35 1.557.088 2.256-.079.212-.164.37-.33.616-.44.645-1.981 2.859-1.995 2.863-.009.003-.038-.025-.065-.062zm.358-3.812a.846.846 0 0 0 .514-.5.847.847 0 0 0-.566-1.111.914.914 0 0 0-.478.013.848.848 0 0 0-.585.798c0 .392.263.728.644.824a1 1 0 0 0 .47-.024zm-131.438-.33a787.1 787.1 0 0 1-2.008-2.901c-.56-.835-.586-2.087-.06-2.995.272-.47.743-.855 1.28-1.047 1.212-.435 2.558.117 3.09 1.27.315.681.349 1.556.088 2.255-.08.212-.165.371-.332.616-.438.646-1.98 2.86-1.993 2.864-.01.002-.038-.026-.065-.063zm.357-3.812a.846.846 0 0 0 .514-.5A.847.847 0 0 0 15.97 56a.914.914 0 0 0-.478.013.848.848 0 0 0-.585.798c.001.392.263.728.644.825a1 1 0 0 0 .471-.024zm140.755.74a786.767 786.767 0 0 1-2.007-2.9c-.561-.836-.586-2.088-.06-2.995.272-.47.743-.856 1.279-1.048 1.213-.435 2.558.118 3.09 1.27.315.681.35 1.557.088 2.256-.079.212-.164.37-.33.616-.44.645-1.98 2.858-1.995 2.863-.008.003-.038-.025-.065-.062zm.358-3.812a.846.846 0 0 0 .514-.5.847.847 0 0 0-.566-1.111.914.914 0 0 0-.478.013.848.848 0 0 0-.585.797c0 .393.263.729.644.825a1 1 0 0 0 .47-.024zm-131.734.67a785.343 785.343 0 0 1-2.007-2.9c-.561-.836-.587-2.088-.06-2.996.272-.47.742-.855 1.278-1.047 1.214-.435 2.559.118 3.091 1.27.315.681.349 1.557.088 2.256-.08.212-.165.37-.331.615-.44.646-1.98 2.86-1.994 2.864-.009.003-.038-.025-.065-.063zm.357-3.812a.846.846 0 0 0 .514-.5.847.847 0 0 0-.565-1.112.915.915 0 0 0-.479.013.848.848 0 0 0-.584.798c0 .393.263.728.644.825a1 1 0 0 0 .47-.024zM5.746 44.19a785.994 785.994 0 0 1-2.007-2.9c-.561-.836-.586-2.087-.06-2.995.272-.47.743-.855 1.279-1.048 1.213-.435 2.558.118 3.09 1.27.315.682.35 1.557.088 2.256-.08.212-.165.371-.331.616-.439.645-1.98 2.859-1.994 2.863-.009.003-.038-.025-.065-.062zm.358-3.812a.846.846 0 0 0 .513-.499.847.847 0 0 0-.565-1.112.914.914 0 0 0-.478.013.848.848 0 0 0-.585.798c0 .392.263.728.644.825a1 1 0 0 0 .47-.025zm45.336.205a786.446 786.446 0 0 1-2.007-2.9c-.56-.836-.586-2.087-.06-2.995.272-.47.743-.856 1.28-1.048 1.212-.435 2.557.118 3.09 1.27.315.682.349 1.557.087 2.256-.079.212-.164.371-.33.616-.44.645-1.98 2.859-1.994 2.863-.01.003-.039-.025-.066-.062zm.358-3.812a.846.846 0 0 0 .514-.499.847.847 0 0 0-.566-1.112.915.915 0 0 0-.478.013.848.848 0 0 0-.585.798c.001.392.263.728.644.825a1 1 0 0 0 .47-.025zm-28.918.205a786.434 786.434 0 0 1-2.007-2.9c-.562-.836-.587-2.087-.06-2.995.272-.47.742-.856 1.278-1.048 1.213-.435 2.559.118 3.091 1.27.315.682.349 1.557.088 2.256-.08.212-.165.37-.331.616-.44.645-1.98 2.859-1.994 2.863-.009.003-.038-.025-.065-.062zm.357-3.812a.846.846 0 0 0 .514-.499.847.847 0 0 0-.565-1.112.915.915 0 0 0-.479.013.848.848 0 0 0-.584.798c0 .392.262.728.644.824a1 1 0 0 0 .47-.024zm97.231.205a785.998 785.998 0 0 1-2.007-2.9c-.561-.836-.587-2.088-.06-2.995.272-.47.743-.856 1.279-1.048 1.213-.435 2.558.118 3.09 1.27.315.681.349 1.557.088 2.256-.08.212-.165.37-.331.616-.439.645-1.98 2.859-1.994 2.863-.009.003-.038-.025-.065-.062zm.358-3.812a.846.846 0 0 0 .513-.499.847.847 0 0 0-.565-1.112.914.914 0 0 0-.479.013.848.848 0 0 0-.584.798c0 .392.263.728.644.824a1 1 0 0 0 .47-.024zm42.392 3.065a786.647 786.647 0 0 1-2.008-2.9c-.56-.836-.586-2.087-.06-2.995.272-.47.743-.855 1.28-1.048 1.212-.435 2.558.118 3.09 1.27.315.682.349 1.557.088 2.256-.08.212-.165.371-.332.616a226.46 226.46 0 0 1-1.993 2.863c-.01.003-.038-.025-.065-.062zm.357-3.812a.846.846 0 0 0 .514-.499.847.847 0 0 0-.566-1.112.914.914 0 0 0-.478.013.848.848 0 0 0-.585.798c.001.392.263.728.644.825a1 1 0 0 0 .471-.025zm-27.072 1.064a786.503 786.503 0 0 1-2.007-2.9c-.562-.835-.587-2.087-.06-2.995a2.446 2.446 0 0 1 1.3-1.054c1.217-.42 2.54.13 3.069 1.277.315.681.349 1.556.088 2.256-.08.212-.165.37-.331.615-.44.646-1.98 2.86-1.994 2.864-.01.003-.038-.025-.065-.063zm.357-3.811a.846.846 0 0 0 .514-.5.847.847 0 0 0-.565-1.112.915.915 0 0 0-.479.013.848.848 0 0 0-.584.798c0 .393.262.728.644.825a1 1 0 0 0 .47-.024zm33.572 3.811a786.434 786.434 0 0 1-2.007-2.9c-.562-.835-.587-2.087-.06-2.995.272-.47.742-.855 1.278-1.047 1.213-.435 2.559.118 3.09 1.27.316.681.35 1.556.089 2.256-.08.212-.165.37-.331.615-.44.646-1.98 2.86-1.994 2.864-.009.003-.038-.025-.065-.063zm.357-3.811a.846.846 0 0 0 .514-.5.847.847 0 0 0-.565-1.112.915.915 0 0 0-.479.013.848.848 0 0 0-.584.798c0 .393.262.728.644.825a1 1 0 0 0 .47-.024zm6.04-1.698a787.085 787.085 0 0 1-2.007-2.9c-.562-.836-.587-2.087-.06-2.995.271-.47.742-.855 1.278-1.048 1.213-.434 2.559.118 3.09 1.27.316.681.35 1.558.089 2.256-.08.212-.165.371-.331.616a226.47 226.47 0 0 1-1.994 2.863c-.01.003-.038-.025-.065-.062zm.357-3.811a.846.846 0 0 0 .514-.5.847.847 0 0 0-.566-1.112.914.914 0 0 0-.478.013.848.848 0 0 0-.584.798c0 .392.262.728.644.825a1 1 0 0 0 .47-.024zm-70.907-1.881a786.063 786.063 0 0 1-2.007-2.9c-.561-.836-.586-2.088-.06-2.995.272-.47.743-.856 1.279-1.048 1.213-.435 2.558.118 3.09 1.27.315.681.35 1.557.088 2.256-.079.212-.164.37-.33.616-.44.645-1.98 2.859-1.995 2.863-.008.003-.038-.025-.065-.062zm.358-3.812a.846.846 0 0 0 .514-.5.847.847 0 0 0-.566-1.111.914.914 0 0 0-.478.013.848.848 0 0 0-.585.798c0 .392.263.728.644.824a1 1 0 0 0 .47-.024zm-92.69-7.728a786.434 786.434 0 0 1-2.008-2.9c-.56-.836-.586-2.091-.06-2.995.28-.48.756-.866 1.3-1.054 1.218-.42 2.54.13 3.07 1.276.315.682.349 1.557.088 2.256-.08.212-.165.371-.332.616-.438.645-1.98 2.859-1.993 2.863-.01.003-.038-.025-.065-.062zm.357-3.812a.846.846 0 0 0 .514-.499.847.847 0 0 0-.566-1.112.915.915 0 0 0-.478.013.848.848 0 0 0-.585.798c.001.392.263.728.644.825a1 1 0 0 0 .471-.025z" fill="#30c3fe"/><path d="M159.455 92.836c-1.12-1.62-1.11-1.606-1.184-1.737a2.806 2.806 0 0 1-.306-1.011 3.955 3.955 0 0 1 .027-.844c.128-.7.448-1.246.953-1.627a2.45 2.45 0 0 1 1.5-.498c1.041 0 1.936.613 2.305 1.58.118.31.173.596.185.966.02.639-.122 1.163-.446 1.645-.292.435-2.034 2.938-2.044 2.938-.006 0-.452-.636-.99-1.412zm1.272-2.435a.875.875 0 0 0 .572-.614c.031-.133.02-.36-.023-.483a.883.883 0 0 0-.598-.544 1.065 1.065 0 0 0-.42.001.899.899 0 0 0-.551.447.831.831 0 0 0 .006.768c.109.22.33.391.577.447a.969.969 0 0 0 .437-.022zm-7.697-5.794c-1.12-1.62-1.111-1.605-1.184-1.737a2.805 2.805 0 0 1-.306-1.01 3.955 3.955 0 0 1 .027-.845c.128-.699.448-1.245.953-1.626a2.45 2.45 0 0 1 1.5-.5c1.041 0 1.936.615 2.305 1.581.118.31.173.596.185.967.02.638-.122 1.163-.446 1.645-.292.434-2.034 2.937-2.044 2.937-.007 0-.452-.635-.99-1.412zm1.272-2.435a.875.875 0 0 0 .572-.614c.031-.133.02-.359-.023-.482a.883.883 0 0 0-.598-.544 1.065 1.065 0 0 0-.421 0 .899.899 0 0 0-.55.447.831.831 0 0 0 .006.768c.109.22.33.391.577.447a.969.969 0 0 0 .437-.022zM85.75 76.096c-1.266-1.828-1.185-1.705-1.289-1.955a2.757 2.757 0 0 1-.21-1.215c.011-.372.066-.656.186-.972.32-.84 1.05-1.42 1.952-1.553a2.76 2.76 0 0 1 .936.043c.69.172 1.27.617 1.582 1.216.211.404.307.78.322 1.266.02.639-.121 1.163-.446 1.645-.292.434-2.033 2.938-2.043 2.938-.007 0-.453-.636-.99-1.413zm1.272-2.434a.875.875 0 0 0 .571-.614c.032-.133.021-.36-.022-.483a.883.883 0 0 0-.598-.544 1.064 1.064 0 0 0-.421.001.899.899 0 0 0-.551.447.831.831 0 0 0 .007.768c.108.22.33.391.577.447a.969.969 0 0 0 .437-.022zm5.942-1.173c-1.266-1.828-1.185-1.705-1.289-1.955a2.757 2.757 0 0 1-.21-1.215c.011-.373.066-.656.186-.972.321-.84 1.05-1.42 1.952-1.553a2.76 2.76 0 0 1 .936.043c.69.172 1.27.617 1.582 1.216.211.404.307.78.322 1.266.02.639-.121 1.163-.446 1.645-.292.434-2.033 2.938-2.043 2.938-.007 0-.452-.636-.99-1.413zm1.272-2.434a.875.875 0 0 0 .572-.614c.03-.133.02-.36-.023-.483a.883.883 0 0 0-.598-.544 1.064 1.064 0 0 0-.421.001.899.899 0 0 0-.55.447.831.831 0 0 0 .006.768c.108.22.33.39.577.447a.969.969 0 0 0 .437-.022zm51.58-5.85c-1.265-1.829-1.184-1.706-1.289-1.956a2.757 2.757 0 0 1-.21-1.215c.012-.373.066-.656.187-.972.32-.84 1.049-1.42 1.952-1.553a2.76 2.76 0 0 1 .935.043c.69.172 1.27.617 1.582 1.216.211.404.307.78.322 1.266.02.639-.121 1.163-.445 1.645-.293.434-2.034 2.938-2.044 2.938-.007 0-.452-.636-.99-1.413zm1.272-2.435a.875.875 0 0 0 .572-.614c.031-.133.02-.36-.023-.483a.883.883 0 0 0-.598-.544 1.064 1.064 0 0 0-.421.001.899.899 0 0 0-.55.447.831.831 0 0 0 .006.768c.108.22.33.39.577.447a.969.969 0 0 0 .437-.022zM14.735 60.062c-1.12-1.62-1.11-1.605-1.184-1.737a2.805 2.805 0 0 1-.306-1.01 3.955 3.955 0 0 1 .027-.845c.128-.7.448-1.245.953-1.626a2.5 2.5 0 0 1 2.282-.377c.592.192 1.105.62 1.386 1.158.21.405.306.78.322 1.267.02.638-.122 1.163-.446 1.645a258.61 258.61 0 0 1-2.044 2.937c-.006 0-.452-.635-.99-1.412zm1.272-2.435a.875.875 0 0 0 .572-.614c.031-.133.02-.36-.023-.482a.883.883 0 0 0-.597-.544 1.064 1.064 0 0 0-.422 0 .899.899 0 0 0-.55.447.831.831 0 0 0 .006.768c.109.22.33.391.577.447a.969.969 0 0 0 .437-.022zm139.841-.637c-1.12-1.62-1.11-1.605-1.184-1.736a2.805 2.805 0 0 1-.306-1.011 3.955 3.955 0 0 1 .027-.844c.128-.7.448-1.246.953-1.627a2.5 2.5 0 0 1 2.282-.376c.592.191 1.105.62 1.386 1.158.21.404.306.78.322 1.266.02.639-.122 1.163-.446 1.645-.292.434-2.034 2.938-2.044 2.938-.007 0-.452-.636-.99-1.413zm1.272-2.435a.875.875 0 0 0 .572-.613c.031-.134.02-.36-.023-.483a.883.883 0 0 0-.598-.544 1.064 1.064 0 0 0-.42 0 .899.899 0 0 0-.552.448.831.831 0 0 0 .007.767c.109.22.33.392.577.448a.969.969 0 0 0 .437-.023zm-132.648-.707c-1.121-1.62-1.111-1.605-1.184-1.736a2.805 2.805 0 0 1-.307-1.011 3.955 3.955 0 0 1 .027-.844c.128-.7.448-1.246.953-1.627a2.5 2.5 0 0 1 2.283-.376c.592.191 1.104.62 1.385 1.158.211.404.307.78.322 1.266.02.639-.122 1.163-.446 1.645-.292.434-2.033 2.938-2.043 2.938-.007 0-.453-.636-.99-1.413zm1.272-2.435a.875.875 0 0 0 .571-.613c.032-.134.021-.36-.022-.483a.883.883 0 0 0-.598-.544 1.064 1.064 0 0 0-.421 0 .899.899 0 0 0-.551.448.831.831 0 0 0 .007.767c.108.22.33.392.577.447a.969.969 0 0 0 .437-.022zM4.816 42.83c-1.12-1.62-1.111-1.606-1.184-1.737a2.805 2.805 0 0 1-.307-1.011 3.956 3.956 0 0 1 .028-.844c.127-.7.448-1.246.952-1.626a2.5 2.5 0 0 1 2.283-.377c.592.192 1.105.62 1.385 1.158.211.404.307.78.322 1.266.02.64-.121 1.163-.445 1.645a258.54 258.54 0 0 1-2.044 2.938c-.007 0-.452-.635-.99-1.412zm1.272-2.435a.875.875 0 0 0 .572-.614c.03-.133.02-.36-.023-.482a.883.883 0 0 0-.598-.545 1.064 1.064 0 0 0-.421.001.899.899 0 0 0-.55.447.831.831 0 0 0 .006.768c.108.22.33.391.577.447a.969.969 0 0 0 .437-.022zm44.422-1.172c-1.12-1.62-1.11-1.606-1.184-1.737a2.806 2.806 0 0 1-.306-1.011 3.956 3.956 0 0 1 .027-.844c.128-.7.448-1.246.953-1.627a2.5 2.5 0 0 1 2.282-.376c.592.192 1.105.62 1.386 1.158.21.404.306.78.322 1.266.02.639-.122 1.163-.446 1.645-.292.435-2.034 2.938-2.044 2.938-.006 0-.452-.636-.99-1.412zm1.272-2.435a.875.875 0 0 0 .572-.614c.031-.133.02-.36-.023-.483a.883.883 0 0 0-.598-.544 1.064 1.064 0 0 0-.42.001.899.899 0 0 0-.551.447.831.831 0 0 0 .006.768c.109.22.33.391.577.447a.969.969 0 0 0 .437-.022zM21.95 35.616c-1.121-1.62-1.112-1.606-1.184-1.737a2.806 2.806 0 0 1-.307-1.011 3.956 3.956 0 0 1 .027-.844c.128-.7.448-1.246.953-1.627a2.5 2.5 0 0 1 2.283-.376c.591.192 1.104.62 1.385 1.158.21.404.306.78.322 1.266.02.639-.122 1.163-.446 1.645a258.54 258.54 0 0 1-2.043 2.938c-.007 0-.453-.636-.99-1.412zm1.271-2.435a.875.875 0 0 0 .572-.614c.031-.133.02-.36-.022-.483a.883.883 0 0 0-.598-.544 1.064 1.064 0 0 0-.422.001.899.899 0 0 0-.55.447.831.831 0 0 0 .007.768c.108.22.33.391.577.447a.969.969 0 0 0 .436-.022zm96.317-1.173c-1.121-1.62-1.111-1.605-1.184-1.736a2.805 2.805 0 0 1-.307-1.011 3.956 3.956 0 0 1 .028-.844c.127-.7.447-1.246.952-1.627a2.45 2.45 0 0 1 1.5-.499c1.042 0 1.937.614 2.306 1.581.118.31.172.596.184.966.02.639-.121 1.163-.446 1.645-.292.434-2.033 2.938-2.043 2.938-.007 0-.452-.636-.99-1.413zm1.272-2.434a.875.875 0 0 0 .572-.614c.03-.133.02-.36-.023-.483a.883.883 0 0 0-.598-.544 1.064 1.064 0 0 0-.421.001.899.899 0 0 0-.55.447.831.831 0 0 0 .006.768c.108.22.33.39.577.447a.969.969 0 0 0 .437-.022zm41.477 1.688c-1.265-1.829-1.184-1.706-1.288-1.955a2.757 2.757 0 0 1-.21-1.216c.011-.372.066-.656.186-.972.32-.84 1.05-1.42 1.952-1.552a2.76 2.76 0 0 1 .935.042c.69.172 1.27.617 1.583 1.216.21.404.306.78.322 1.266.02.64-.122 1.163-.446 1.645-.292.435-2.034 2.938-2.044 2.938-.006 0-.452-.635-.99-1.412zm1.272-2.435a.875.875 0 0 0 .572-.614c.031-.133.02-.36-.023-.482a.883.883 0 0 0-.598-.545 1.064 1.064 0 0 0-.42.001.899.899 0 0 0-.551.447.831.831 0 0 0 .006.768c.109.22.33.391.577.447a.969.969 0 0 0 .437-.022zm-27.987-.313c-1.265-1.828-1.184-1.705-1.288-1.955a2.757 2.757 0 0 1-.21-1.215c.011-.373.066-.657.186-.972.32-.841 1.05-1.42 1.952-1.553a2.76 2.76 0 0 1 .935.043c.69.171 1.27.616 1.583 1.216.21.404.306.78.322 1.266.02.639-.122 1.163-.446 1.645-.292.434-2.034 2.938-2.043 2.938-.007 0-.453-.636-.99-1.413zm1.272-2.435a.875.875 0 0 0 .572-.614c.031-.133.02-.359-.022-.482a.883.883 0 0 0-.598-.544 1.064 1.064 0 0 0-.422 0 .899.899 0 0 0-.55.448.831.831 0 0 0 .006.767c.109.22.33.392.578.447a.969.969 0 0 0 .436-.022zm32.658 2.435c-1.266-1.828-1.185-1.705-1.29-1.955a2.757 2.757 0 0 1-.21-1.215c.012-.373.067-.657.187-.972.32-.841 1.05-1.42 1.952-1.553a2.76 2.76 0 0 1 .935.043c.69.171 1.27.616 1.583 1.216.21.404.306.78.322 1.266.02.639-.122 1.163-.446 1.645a258.6 258.6 0 0 1-2.043 2.938c-.007 0-.453-.636-.99-1.413zm1.271-2.435a.875.875 0 0 0 .572-.614c.031-.133.02-.359-.022-.482a.883.883 0 0 0-.598-.544 1.064 1.064 0 0 0-.422 0 .899.899 0 0 0-.55.448.831.831 0 0 0 .007.767c.108.22.33.392.577.447a.969.969 0 0 0 .436-.022zm5.125-3.074c-1.12-1.62-1.11-1.605-1.183-1.737a2.805 2.805 0 0 1-.307-1.01 3.955 3.955 0 0 1 .027-.845c.128-.7.448-1.246.953-1.626a2.45 2.45 0 0 1 1.5-.5c1.041 0 1.936.614 2.305 1.581.118.31.173.596.185.966.02.64-.122 1.164-.446 1.646-.292.434-2.034 2.937-2.043 2.937-.007 0-.453-.635-.99-1.412zm1.272-2.435a.875.875 0 0 0 .572-.614c.031-.133.02-.36-.022-.482a.883.883 0 0 0-.598-.544 1.064 1.064 0 0 0-.422 0 .899.899 0 0 0-.55.447.831.831 0 0 0 .006.768c.109.22.33.391.578.447a.969.969 0 0 0 .436-.022zm-71.82-3.258c-1.122-1.62-1.112-1.605-1.185-1.736a2.805 2.805 0 0 1-.306-1.011 3.956 3.956 0 0 1 .027-.844c.128-.7.448-1.246.953-1.627a2.5 2.5 0 0 1 2.282-.376c.592.192 1.105.62 1.385 1.158.211.404.307.78.323 1.266.02.639-.122 1.163-.446 1.645-.292.434-2.034 2.938-2.044 2.938-.007 0-.452-.636-.99-1.413zm1.271-2.434a.875.875 0 0 0 .572-.614c.031-.133.02-.36-.023-.483a.883.883 0 0 0-.598-.544 1.064 1.064 0 0 0-.421.001.899.899 0 0 0-.55.447.831.831 0 0 0 .006.768c.109.22.33.39.577.447a.969.969 0 0 0 .437-.022zM13.016 5.773c-1.12-1.62-1.11-1.606-1.184-1.737a2.805 2.805 0 0 1-.306-1.011 3.956 3.956 0 0 1 .027-.844c.128-.702.446-1.244.953-1.627a2.5 2.5 0 0 1 2.282-.376c.592.192 1.105.62 1.386 1.158.21.404.306.78.322 1.266.02.639-.122 1.163-.446 1.645a258.54 258.54 0 0 1-2.044 2.938c-.006 0-.452-.636-.99-1.412zm1.272-2.435a.875.875 0 0 0 .572-.614c.031-.133.02-.36-.023-.483a.883.883 0 0 0-.597-.544 1.064 1.064 0 0 0-.422.001.899.899 0 0 0-.55.447.831.831 0 0 0 .006.768c.109.22.33.391.577.447a.969.969 0 0 0 .437-.022z" fill="#00b6fe"/></svg>